<svg xmlns="http://www.w3.org/2000/svg" xmlns:xlink="http://www.w3.org/1999/xlink" width="826" height="275" viewBox="0 0 826 275"><defs><style>.a{fill:#fafafa;stroke:#72787a;opacity:0.1;}.b,.f,.m{fill:none;}.b{stroke:#2a2d2e;stroke-width:2px;}.c,.h,.k{fill:#2a2d2e;}.d{fill:url(#a);}.e,.i{fill:#72787a;}.f,.i{stroke:#707070;}.f{stroke-dasharray:5;}.g,.j{fill:#fff;}.g,.h,.k{font-size:10px;}.g,.k{font-family:Poppins-Regular, Poppins;}.h{font-family:Poppins-Medium, Poppins;font-weight:500;}.j{stroke:#dd1818;}.l{stroke:none;}</style><linearGradient id="a" x1="0.5" x2="0.5" y2="1" gradientUnits="objectBoundingBox"><stop offset="0" stop-color="#dd1818"/><stop offset="1" stop-color="#870000"/></linearGradient></defs><g transform="translate(-520.5 -5018.5)"><rect class="a" width="825" height="274" rx="10" transform="translate(521 5019)"/><g transform="translate(7816 23939.311)"><path class="b" d="M1253.59,5234.656V5252.4" transform="translate(-7868.22 -23930.4)"/><rect class="c" width="140.016" height="7.26" transform="translate(-6941.015 -18853.035)"/><path class="d" d="M0,0H89.323V74.059c0,24.666-18.689,50.009-43.355,50.009S0,98.725,0,74.059Z" transform="translate(-7024.753 -18807.234)"/><rect class="d" width="178.391" height="93.344" transform="translate(-6840.23 -18808.438)"/><path class="c" d="M0,11.117H25.12v2.405l7.621-6.015L25.12,0V3.6H0Z" transform="translate(-6805.984 -18715.906) rotate(90)"/><path class="c" d="M0,11.117H25.12v2.405l7.621-6.015L25.12,0V3.6H0Z" transform="translate(-6763.979 -18715.906) rotate(90)"/><path class="c" d="M0,11.117H25.12v2.405l7.621-6.015L25.12,0V3.6H0Z" transform="translate(-6721.974 -18715.906) rotate(90)"/><path class="c" d="M0,11.117H25.12v2.405l7.621-6.015L25.12,0V3.6H0Z" transform="translate(-6679.969 -18715.906) rotate(90)"/><g transform="translate(131.038 270.201)"><path class="c" d="M0,11.117H25.12v2.405l7.094-5.711L25.12,0V3.6H0Z" transform="translate(-7104.813 -19102.326) rotate(90)"/><rect class="c" width="12.446" height="3.111" transform="translate(-7118.317 -19096.105)"/></g><rect class="d" width="48.746" height="47.635" transform="translate(-6922.458 -18872.742)"/><rect class="e" width="36.3" height="77.787" rx="4" transform="translate(-6831 -18777.324)"/><rect class="e" width="36.3" height="77.787" rx="4" transform="translate(-6789 -18777.324)"/><rect class="e" width="36.3" height="77.787" rx="4" transform="translate(-6747 -18777.324)"/><rect class="e" width="36.3" height="77.787" rx="4" transform="translate(-6705 -18777.324)"/><path class="f" d="M-9449.309-18699.215h195.192" transform="translate(2636.563 18.124)"/><text class="g" transform="translate(-6825 -18749)"><tspan x="0" y="11">Col 1</tspan></text><text class="g" transform="translate(-6784 -18749)"><tspan x="0" y="11">Col 2</tspan></text><text class="g" transform="translate(-6743 -18749)"><tspan x="0" y="11">Col 3</tspan></text><text class="g" transform="translate(-6700 -18749)"><tspan x="0" y="11">Col 4</tspan></text><text class="h" transform="translate(-6655 -18697)"><tspan x="0" y="11">ELUATE</tspan></text><text class="g" transform="translate(-6787 -18798)"><tspan x="0" y="11">4 COLUMN PCC</tspan></text><text class="g" transform="translate(-6912 -18857)"><tspan x="0" y="11">PUMP</tspan></text><rect class="e" width="79.861" height="47.635" rx="4" transform="translate(-7020.876 -18872.742)"/><text class="g" transform="translate(-7017 -18864)"><tspan x="-20.375" y="11">ATF CELL </tspan><tspan x="-25.275" y="25">RETENTION</tspan></text><g transform="translate(-0.305 10.797)"><path class="c" d="M-9433-18855.145h27.068v2.4l7.646-5.711-7.646-7.811v3.6H-9433Z" transform="translate(2381.59 96.148)"/><path class="e" d="M-9718.228-18797.814v54.967s17.112,5.717,32.848,5.717,30.088-5.717,30.088-5.717v-54.967s-15.807,4.324-31.539,4.107A159.01,159.01,0,0,1-9718.228-18797.814Z" transform="translate(2607.094 10.429)"/><g class="i" transform="translate(-7111.302 -18796.828)"><ellipse class="l" cx="31.802" cy="6.247" rx="31.802" ry="6.247"/><ellipse class="m" cx="31.802" cy="6.247" rx="31.302" ry="5.747"/></g><text class="g" transform="translate(-7104 -18777)"><tspan x="-14.87" y="11">MEDIA </tspan><tspan x="-11.18" y="25">FEED </tspan><tspan x="-16.26" y="39">VESSEL</tspan></text></g><text class="g" transform="translate(-7015.592 -18759.869)"><tspan x="-30.21" y="11">BIOREACTOR</tspan></text><path class="c" d="M0,11.117H25.12v2.405l7.621-6.015L25.12,0V3.6H0Z" transform="translate(-6744.273 -18836.439) rotate(90)"/><rect class="e" width="46.375" height="64.006" rx="15" transform="translate(-6774.222 -18888.621)"/><path class="c" d="M-9433-18855.322h25.12v2.367l7.094-5.621-7.094-7.68v3.541H-9433Z" transform="translate(2630.255 9.639)"/><g class="j" transform="translate(-6854.23 -18860.295)"><rect class="l" width="54.23" height="21.781"/><rect class="m" x="0.5" y="0.5" width="53.23" height="20.781"/></g><text class="k" transform="translate(-6843 -18857)"><tspan x="0" y="11">FILTER</tspan></text><text class="g" transform="translate(-6777 -18871)"><tspan x="-15.48" y="11">SURGE </tspan><tspan x="-10.22" y="25">BAG</tspan></text><text class="k" transform="translate(-6844 -18879)"><tspan x="0" y="11">0.2 pm</tspan></text></g></g></svg>