<svg xmlns="http://www.w3.org/2000/svg" xmlns:xlink="http://www.w3.org/1999/xlink" width="66" height="66" viewBox="0 0 66 66"><defs><style>.a{fill:url(#a);}.b{fill:#fff;}</style><linearGradient id="a" x1="0.5" x2="0.5" y2="1" gradientUnits="objectBoundingBox"><stop offset="0" stop-color="#dd1818"/><stop offset="1" stop-color="#870000"/></linearGradient></defs><g transform="translate(-785 -1185)"><circle class="a" cx="33" cy="33" r="33" transform="translate(785 1185)"/><g transform="translate(798.07 1197.745)"><path class="b" d="M9.553,22.154a.557.557,0,0,0,.32-.1l20.389-14.2L29.92,9.743a.561.561,0,0,0,.454.651h.1a.561.561,0,0,0,.561-.466L31.6,6.714a.552.552,0,0,0,0-.219.562.562,0,0,0-.084-.2.518.518,0,0,0-.163-.151.474.474,0,0,0-.174-.067h0l-3.215-.561a.562.562,0,0,0-.2,1.1h0l1.885.337L9.222,21.133a.561.561,0,0,0,.331,1.021Z" transform="translate(-1.967)"/><path class="b" d="M34.8,39.851H32.834V19.091a.561.561,0,0,0-.561-.561H26.662a.561.561,0,0,0-.561.561v20.76H23.857V25.824a.561.561,0,0,0-.561-.561H17.685a.561.561,0,0,0-.561.561V39.851H14.88V31.435a.561.561,0,0,0-.561-.561H8.708a.561.561,0,0,0-.561.561v8.416H5.061a.561.561,0,1,0,0,1.122H34.8a.561.561,0,0,0,0-1.122Zm-25.529,0V32h4.489v7.855Zm8.977,0V26.385h4.489V39.851Zm8.977,0v-20.2h4.489v20.2Z" transform="translate(0 -5.717)"/></g></g></svg>