<svg xmlns="http://www.w3.org/2000/svg" xmlns:xlink="http://www.w3.org/1999/xlink" width="66" height="66" viewBox="0 0 66 66"><defs><style>.a{fill:url(#a);}.b{fill:#fff;}</style><linearGradient id="a" x1="0.5" x2="0.5" y2="1" gradientUnits="objectBoundingBox"><stop offset="0" stop-color="#dd1818"/><stop offset="1" stop-color="#870000"/></linearGradient></defs><g transform="translate(-1271 -1198)"><circle class="a" cx="33" cy="33" r="33" transform="translate(1271 1198)"/><path class="b" d="M29.726,27.493a2.766,2.766,0,0,1-1.985-.825,2.892,2.892,0,0,1-.4-.518,6.96,6.96,0,0,0,.836-.786,8.7,8.7,0,0,0,2.138-4.894,7.338,7.338,0,1,0-11.548-.053,8.706,8.706,0,0,0,1.619,4.3,7.142,7.142,0,0,0,1.38,1.463,2.659,2.659,0,0,1-.386.491,2.766,2.766,0,0,1-1.981.822,7.213,7.213,0,0,0-7.213,7.212v3.04a.594.594,0,0,0,.595.595H36.344a.594.594,0,0,0,.595-.595v-3.04A7.221,7.221,0,0,0,29.726,27.493Zm1.726,4.933a.893.893,0,1,1-.892.893A.894.894,0,0,1,31.452,32.427ZM24.561,9.779A6.135,6.135,0,0,1,30.379,17.9v-.06A3.706,3.706,0,0,0,27.716,14.2a3.184,3.184,0,0,0-.818-.11,2.259,2.259,0,0,0-1.818.686.569.569,0,0,1-.509.231h-.013a.578.578,0,0,1-.518-.233,2.275,2.275,0,0,0-1.822-.684,3.182,3.182,0,0,0-.814.109,3.706,3.706,0,0,0-2.66,3.634V17.9a6.136,6.136,0,0,1,5.816-8.123ZM19.935,19.947V17.833a2.547,2.547,0,0,1,1.777-2.484,1.944,1.944,0,0,1,.506-.069,1.139,1.139,0,0,1,1,.354,1.718,1.718,0,0,0,1.336.564,1.745,1.745,0,0,0,1.35-.564,1.127,1.127,0,0,1,.994-.354,2.009,2.009,0,0,1,.511.069,2.517,2.517,0,0,1,1.781,2.485v1.589a7.65,7.65,0,0,1-1.9,5.145,3.679,3.679,0,0,1-2.883,1.463,4.314,4.314,0,0,1-3.058-2.009A7.405,7.405,0,0,1,19.935,19.947Zm4.41,7.273c.066,0,.135.006.206.006a4.1,4.1,0,0,0,1.79-.434,4.016,4.016,0,0,0,.556.716,3.92,3.92,0,0,0,.836.627l-3.1,2.088-3.163-2.131a3.9,3.9,0,0,0,.747-.577,3.791,3.791,0,0,0,.554-.706A4.236,4.236,0,0,0,24.345,27.22Zm11.4,9.93H13.376V34.706a5.983,5.983,0,0,1,1.764-4.258c.021-.021.044-.038.065-.058l1.286,1.153a1.841,1.841,0,0,0,.187,1.868l1.446,1.94a1.382,1.382,0,0,0,1.007.552c.034,0,.067,0,.1,0a1.382,1.382,0,0,0,.976-.4.595.595,0,0,0-.841-.842.179.179,0,0,1-.149.056.186.186,0,0,1-.139-.076L17.632,32.7a.64.64,0,0,1,.9-.9l1.94,1.446a.192.192,0,0,1,.021.288.595.595,0,0,0,.841.841,1.381,1.381,0,0,0-.151-2.084l-1.94-1.446a1.837,1.837,0,0,0-1.917-.16L16.15,29.637a5.978,5.978,0,0,1,3.249-.955,4.114,4.114,0,0,0,.719-.069L24.3,31.433a.591.591,0,0,0,.664,0l4.167-2.808a3.982,3.982,0,0,0,.591.058,6.009,6.009,0,0,1,1.131.11v2.541a2.083,2.083,0,1,0,1.19,0V29.15a6.03,6.03,0,0,1,3.7,5.556Z" transform="translate(1279.438 1207.535)"/></g></svg>