<svg xmlns="http://www.w3.org/2000/svg" xmlns:xlink="http://www.w3.org/1999/xlink" width="66" height="66" viewBox="0 0 66 66"><defs><style>.a{fill:url(#a);}.b{fill:#fff;}</style><linearGradient id="a" x1="0.5" x2="0.5" y2="1" gradientUnits="objectBoundingBox"><stop offset="0" stop-color="#dd1818"/><stop offset="1" stop-color="#870000"/></linearGradient></defs><g transform="translate(-1007 -1185)"><circle class="a" cx="33" cy="33" r="33" transform="translate(1007 1185)"/><g transform="translate(1023.215 1203.125)"><g transform="translate(0 16.631)"><path class="b" d="M15.744,243.62H6.56a6.56,6.56,0,1,1,0-13.12h9.184a.658.658,0,0,1,.656.656v11.808A.658.658,0,0,1,15.744,243.62ZM6.56,231.812a5.248,5.248,0,0,0,0,10.5h8.528v-10.5Z" transform="translate(0 -230.5)"/><g transform="translate(16.514)"><path class="b" d="M240.5,243.62h-9.84a.658.658,0,0,1-.656-.656V231.156a.658.658,0,0,1,.656-.656h9.84a6.56,6.56,0,0,1,0,13.12Zm-9.184-1.312H240.5a5.248,5.248,0,0,0,0-10.5h-9.184Z" transform="translate(-230 -230.5)"/></g></g><g transform="translate(10.296)"><path class="b" d="M147.082,9.427a.676.676,0,0,1-.23-.039.645.645,0,0,1-.374-.367,6.56,6.56,0,0,1,11.7-5.852.7.7,0,0,1,.072.525.646.646,0,0,1-.335.407L147.378,9.355A.654.654,0,0,1,147.082,9.427Zm5.478-8.115a5.257,5.257,0,0,0-5.091,6.534L156.64,3.26A5.192,5.192,0,0,0,152.56,1.312Z" transform="translate(-146)"/><g transform="translate(0.429 2.851)"><path class="b" d="M158.676,53.725a6.522,6.522,0,0,1-6.081-4.1.652.652,0,0,1,.315-.833l10.529-5.268a.653.653,0,0,1,.853.249,6.56,6.56,0,0,1-5.615,9.952Zm-4.612-4.048a5.251,5.251,0,0,0,9.86-2.513,5.289,5.289,0,0,0-.472-2.178Z" transform="translate(-152.545 -43.455)"/></g></g></g></g></svg>