<svg xmlns="http://www.w3.org/2000/svg" width="64" height="64" viewBox="0 0 64 64"><defs><style>.a{fill:#fff;stroke:#707070;opacity:0;}.b{fill:#dd1818;}.c{stroke:none;}.d{fill:none;}</style></defs><g transform="translate(-362 -1928)"><g class="a" transform="translate(362 1928)"><rect class="c" width="64" height="64"/><rect class="d" x="0.5" y="0.5" width="63" height="63"/></g><g transform="translate(362 1928)"><path class="b" d="M57.5,13A3.5,3.5,0,0,0,54,16.5V29.61L49.88,34.1a4,4,0,0,0-6.74-1.52L32,44.53l-11.16-12A3.94,3.94,0,0,0,18,31.31a4,4,0,0,0-3.87,2.79L10,29.61V16.5a3.5,3.5,0,0,0-7,0V34a1,1,0,0,0,.14.5L15,54.86V60a1,1,0,0,0,1,1H48a1,1,0,0,0,1-1V54.86L60.86,34.5A1,1,0,0,0,61,34V16.5A3.5,3.5,0,0,0,57.5,13ZM16.86,54.08,5,33.73V16.5a1.5,1.5,0,0,1,3,0V30a1,1,0,0,0,.26.68l11,12a1,1,0,0,0,1.48-1.36l-4.28-4.67a2,2,0,0,1,2.96-2.7L31,46.39V59H17C17,58.7,17.13,54.19,16.86,54.08ZM59,33.73,47.14,54.08a1,1,0,0,0-.14.51V59H33V46.39L44.62,34a1.957,1.957,0,1,1,2.88,2.65l-4.28,4.67a1,1,0,0,0,1.48,1.36l11-12A1,1,0,0,0,56,30V16.5a1.5,1.5,0,0,1,3,0Z"/><path class="b" d="M20,21h7v7a1,1,0,0,0,1,1h8a1,1,0,0,0,1-1V21h7a1,1,0,0,0,1-1V12a1,1,0,0,0-1-1H37V4a1,1,0,0,0-1-1H28a1,1,0,0,0-1,1v7H20a1,1,0,0,0-1,1v8A1,1,0,0,0,20,21Zm1-8h7a1,1,0,0,0,1-1V5h6v7a1,1,0,0,0,1,1h7v6H36a1,1,0,0,0-1,1v7H29V20a1,1,0,0,0-1-1H21Z"/></g></g></svg>