<svg xmlns="http://www.w3.org/2000/svg" width="64" height="64" viewBox="0 0 64 64"><defs><style>.a{fill:#fff;stroke:#707070;opacity:0;}.b{fill:#dd1818;}.c{stroke:none;}.d{fill:none;}</style></defs><g transform="translate(-362 -1928)"><g class="a" transform="translate(362 1928)"><rect class="c" width="64" height="64"/><rect class="d" x="0.5" y="0.5" width="63" height="63"/></g><g transform="translate(357.327 1923.933)"><path class="b" d="M49.815,67.18H40.422V60.73H34V51.31h6.45V44.86h9.365v6.45h6.45v9.42h-6.45ZM42.74,64.842h4.738v-6.45h6.464V53.648H47.5V47.2H42.76v6.45H36.31v4.745h6.45Z" transform="translate(-8.456 -11.649)"/><path class="b" d="M17.911,68.778a5.068,5.068,0,1,0-6.587,0C6.937,69.988,6.93,74.4,6.93,76.2v3.527A1.169,1.169,0,0,0,8.1,80.9h13.03A1.176,1.176,0,0,0,22.3,79.732V76.2C22.3,74.4,22.3,69.988,17.911,68.778ZM14.617,62.2a2.75,2.75,0,1,1-2.75,2.75A2.75,2.75,0,0,1,14.617,62.2ZM19.96,78.563H9.268V76.2c0-3.507.736-5.4,4.607-5.4H15.36c3.871,0,4.6,1.9,4.6,5.4Z" transform="translate(0 -16.335)"/><path class="b" d="M82.061,68.778a5.068,5.068,0,1,0-6.587,0c-4.387,1.21-4.394,5.611-4.394,7.426v3.527A1.176,1.176,0,0,0,72.256,80.9h13.03a1.169,1.169,0,0,0,1.169-1.169V76.2C86.455,74.4,86.448,69.988,82.061,68.778ZM78.767,62.2a2.75,2.75,0,1,1-2.75,2.75A2.75,2.75,0,0,1,78.767,62.2ZM84.09,78.563H73.425V76.2c0-3.507.729-5.4,4.6-5.4H79.51c3.871,0,4.607,1.9,4.607,5.4Z" transform="translate(-20.04 -16.335)"/><path class="b" d="M50,16.488a5.068,5.068,0,1,0-6.587,0C39,17.705,39,22.1,39,23.921v3.521a1.169,1.169,0,0,0,1.169,1.169H53.206a1.169,1.169,0,0,0,1.169-1.169V23.921C54.375,22.1,54.368,17.705,50,16.488Zm-3.314-6.56a2.75,2.75,0,1,1-2.75,2.75A2.75,2.75,0,0,1,46.687,9.928Zm5.377,16.345H41.345V23.921c0-3.514.736-5.412,4.607-5.412H47.43c3.871,0,4.607,1.9,4.607,5.411Z" transform="translate(-10.018)"/></g></g></svg>