<svg xmlns="http://www.w3.org/2000/svg" width="64" height="64" viewBox="0 0 64 64"><defs><style>.a{fill:#fff;stroke:#707070;opacity:0;}.b{fill:#dd1818;}.c{stroke:none;}.d{fill:none;}</style></defs><g transform="translate(-362 -1928)"><g class="a" transform="translate(362 1928)"><rect class="c" width="64" height="64"/><rect class="d" x="0.5" y="0.5" width="63" height="63"/></g><g transform="translate(360.639 1924.829)"><path class="b" d="M59.17,53.6a3.078,3.078,0,0,0-3.6-1.026A3.772,3.772,0,0,0,55.084,51c-1.014-1.843-3.453-1.284-4.756-.664a3.171,3.171,0,0,0-.412-1.266,2.366,2.366,0,0,0-1.475-1.18,3.951,3.951,0,0,0-2.734.461L34.432,53.744a.909.909,0,0,0-.215.154l-4.817.08a19.082,19.082,0,0,0-12.412-3.214c-3.5.246-9.432,3.687-9.684,3.81a.928.928,0,0,0-.455.8v11.76a.922.922,0,0,0,.922.922H38.058a15.189,15.189,0,0,0,7.988-2.267L58.6,58.033a3,3,0,0,0,1.229-1.8,3.41,3.41,0,0,0-.657-2.63ZM53.462,51.87c.516.928.147,1.438.123,1.469a1.039,1.039,0,0,0-.1.178l-6.759,3.57a16.59,16.59,0,0,1-4.916,1.671,3.416,3.416,0,0,0,.387-1.475,3.367,3.367,0,0,0-.111-.989l8.952-4.3c.436-.19,2.071-.786,2.439-.123Zm-6.943-1.9h.061a2.273,2.273,0,0,1,1.364-.3.541.541,0,0,1,.35.3.989.989,0,0,1-.178,1.352.947.947,0,0,0-.16.154L41.124,54.74a4.363,4.363,0,0,0-2.23-.909h-.4Zm11.06,6.5-12.5,7.748a13.37,13.37,0,0,1-7.017,1.991H8.693V55.919c1.426-.793,5.856-3.134,8.424-3.312a17.214,17.214,0,0,1,11.386,3,.916.916,0,0,0,.614.209l9.653-.154c.32.049,1.684.313,1.641,1.555-.055,1.469-1.985,1.77-2.267,1.77H29.72a.922.922,0,0,0,0,1.843h9.333a18.292,18.292,0,0,0,8.553-2.126l7.318-3.871s2.089-1.167,2.728-.215c.75,1.131.209,1.677-.031,1.849Z" transform="translate(0 -11.001)"/><path class="b" d="M42.653,37.545a.909.909,0,0,0,.381.086.959.959,0,0,0,.387-.086c.252-.117,6.243-2.949,8.688-8.989,1.266-3.134.338-6.869-2.12-8.5a4.375,4.375,0,0,0-3.754-.578,5.53,5.53,0,0,0-3.257,2.949,5.53,5.53,0,0,0-3.3-2.894,4.406,4.406,0,0,0-3.748.645c-2.458,1.665-3.293,5.413-1.972,8.528C36.5,34.675,42.4,37.41,42.653,37.545ZM36.976,21.674a2.611,2.611,0,0,1,1.493-.492,2.513,2.513,0,0,1,.7.1,3.773,3.773,0,0,1,2.3,2.243c.166.375.67,1.671.67,1.671a.922.922,0,0,0,.86.614h0a.922.922,0,0,0,.854-.614s.485-1.309.645-1.69a3.81,3.81,0,0,1,2.261-2.28,2.55,2.55,0,0,1,2.2.35c1.727,1.143,2.366,3.957,1.432,6.267-1.843,4.522-6.071,7.109-7.373,7.81a16.864,16.864,0,0,1-7.373-7.687C34.678,25.668,35.274,22.841,36.976,21.674Z" transform="translate(-9.644 -6)"/></g></g></svg>