<svg xmlns="http://www.w3.org/2000/svg" xmlns:xlink="http://www.w3.org/1999/xlink" width="15.476" height="15.477" viewBox="0 0 15.476 15.477"><defs><style>.a{fill:url(#a);}</style><linearGradient id="a" x1="0.5" x2="0.5" y2="1" gradientUnits="objectBoundingBox"><stop offset="0" stop-color="#dd1818"/><stop offset="1" stop-color="#870000"/></linearGradient></defs><path class="a" d="M8.667,15.477h-3.3q0-.9,0-1.805c0-2.947.007-5.994-.079-9H8.15l.155,1.522h.052a3.856,3.856,0,0,1,3.3-1.754c2.391,0,3.818,1.745,3.818,4.667v6.37H12.148V9.491c0-1.557-.564-2.347-1.676-2.347a1.848,1.848,0,0,0-1.7,1.263,2.448,2.448,0,0,0-.1.852v6.216Zm-5.287,0H.078V4.668h3.3V15.475ZM1.7,3.353A1.634,1.634,0,0,1,0,1.676,1.66,1.66,0,0,1,1.754,0,1.647,1.647,0,0,1,3.482,1.676,1.656,1.656,0,0,1,1.7,3.353Z"/></svg>