<svg xmlns="http://www.w3.org/2000/svg" xmlns:xlink="http://www.w3.org/1999/xlink" width="20" height="20" viewBox="0 0 20 20"><defs><style>.a{fill:url(#a);}</style><linearGradient id="a" x1="0.5" x2="0.5" y2="1" gradientUnits="objectBoundingBox"><stop offset="0" stop-color="#dd1818"/><stop offset="1" stop-color="#870000"/></linearGradient></defs><g transform="translate(-2 -2)"><path class="a" d="M10,20A10,10,0,1,1,20,10,10.011,10.011,0,0,1,10,20ZM3.08,6A7.963,7.963,0,0,0,11,17.93V14.5a.48.48,0,0,0-.476-.5H10.51a.5.5,0,0,1-.353-.143A.514.514,0,0,1,10,13.5V12h1.5a.5.5,0,0,1,.5.5.5.5,0,0,0,.5.5h1a.5.5,0,0,1,.5.5.5.5,0,0,0,.5.5H15a1,1,0,0,1,1,1v.27A8,8,0,0,0,4.73,4H11.5a.5.5,0,0,1,.5.5v1a.5.5,0,0,1-.5.5H11a1,1,0,0,0-1,1V8A1,1,0,0,1,9,9H8.5a.5.5,0,0,0,0,1h1a.5.5,0,0,1,.5.5V12H7a1,1,0,0,1-1-1v-.5a.5.5,0,0,0-.5-.5H5A1,1,0,0,1,4,9V6.5A.5.5,0,0,0,3.5,6Z" transform="translate(2 2)"/></g></svg>