<svg xmlns="http://www.w3.org/2000/svg" width="40" height="40" viewBox="0 0 40 40"><defs><style>.a{fill:#f5f5f5;}.b{fill:rgba(0,0,0,0.38);stroke:rgba(0,0,0,0);stroke-miterlimit:10;opacity:0.7;}</style></defs><g transform="translate(-602 -2022)"><circle class="a" cx="20" cy="20" r="20" transform="translate(602 2022)"/><path class="b" d="M-3935,21564h-18v-18h18v18Zm-9-14a5.005,5.005,0,0,0-5,5,5.005,5.005,0,0,0,5,5,5.005,5.005,0,0,0,5-5A5.005,5.005,0,0,0-3944,21550Zm6-2a1,1,0,0,0-1,1,1,1,0,0,0,1,1,1,1,0,0,0,1-1A1,1,0,0,0-3938,21548Z" transform="translate(4566 -19513)"/></g></svg>