<svg xmlns="http://www.w3.org/2000/svg" width="40" height="40" viewBox="0 0 40 40"><defs><style>.a{fill:#f5f5f5;}.b{fill:rgba(0,0,0,0.38);stroke:rgba(0,0,0,0);stroke-miterlimit:10;opacity:0.7;}</style></defs><g transform="translate(-532 -2022)"><circle class="a" cx="20" cy="20" r="20" transform="translate(532 2022)"/><path class="b" d="M-3865,21564h-18v-18h18v18Zm-14.753-5.23v0a7.258,7.258,0,0,0,3.772,1.109,6.733,6.733,0,0,0,5.22-2.293,7.267,7.267,0,0,0,1.81-4.736v-.342a5.7,5.7,0,0,0,1.2-1.287,4.654,4.654,0,0,1-1.456.434,2.5,2.5,0,0,0,1.115-1.375,4.223,4.223,0,0,1-1.542.6,2.329,2.329,0,0,0-1.8-.768,2.486,2.486,0,0,0-2.484,2.484,1.694,1.694,0,0,0,.046.359,1.16,1.16,0,0,1,.035.24,6.975,6.975,0,0,1-5.055-2.57,1.97,1.97,0,0,0-.341,1.2,2.794,2.794,0,0,0,1.109,2.139,3.962,3.962,0,0,1-1.109-.342,2.48,2.48,0,0,0,1.97,2.4,1.785,1.785,0,0,1-.687.092.576.576,0,0,1-.141-.033l-.006,0-.012,0a.9.9,0,0,0-.269-.055,2.48,2.48,0,0,0,2.311,1.715,5.527,5.527,0,0,1-3.085,1.033h-.6Z" transform="translate(4426 -19513)"/></g></svg>