<svg xmlns="http://www.w3.org/2000/svg" xmlns:xlink="http://www.w3.org/1999/xlink" width="84" height="84" viewBox="0 0 84 84"><defs><style>.a{fill:url(#a);}.b{fill:#fff;}</style><linearGradient id="a" x1="0.052" y1="0.247" x2="0.802" y2="0.891" gradientUnits="objectBoundingBox"><stop offset="0" stop-color="#dd1818"/><stop offset="1" stop-color="#870000"/></linearGradient></defs><g transform="translate(-480 -2667)"><path class="a" d="M42,0A42,42,0,1,1,0,42,42,42,0,0,1,42,0Z" transform="translate(480 2667)"/><path class="b" d="M44.467,33.183l3.951-6.842a.657.657,0,0,0,0-.723l-3.951-6.89,3.951-6.842a.7.7,0,0,0-1.2-.723l-3.951,6.842h-5.2A3.152,3.152,0,0,0,35.023,15.6a2.728,2.728,0,0,0-.867.145l-2.313-4,4.1-7.083a.7.7,0,1,0-1.2-.723l-4,6.842H22.543a.752.752,0,0,0-.626.385l-3.951,6.842H9.823a.723.723,0,1,0,0,1.446h8.143l2.361,4.1a2.993,2.993,0,0,0-1.108,2.361,3.072,3.072,0,0,0,1.108,2.361l-2.361,4.1H9.823a.723.723,0,1,0,0,1.446h8.143l3.951,6.842a.752.752,0,0,0,.626.385h8.191l3.951,6.842a.752.752,0,0,0,.626.385.7.7,0,0,0,.337-.1.664.664,0,0,0,.241-.964l-4.1-7.083,2.313-4a2.728,2.728,0,0,0,.867.145,3.1,3.1,0,0,0,3.036-2.409h5.156L47.117,40.7a.752.752,0,0,0,.626.385.7.7,0,0,0,.337-.1.664.664,0,0,0,.241-.964Zm-1.253-.723H38.059v-.048l-.145-.434h0a2.861,2.861,0,0,0-.193-.385l-.048-.048a2.1,2.1,0,0,0-.289-.337l-.048-.048A2.1,2.1,0,0,0,37,30.87a.047.047,0,0,1-.048-.048,1.049,1.049,0,0,0-.385-.241.047.047,0,0,1-.048-.048,1.712,1.712,0,0,0-.434-.193c-.048,0-.048,0-.1-.048a1.407,1.407,0,0,0-.434-.1h-.1a1.639,1.639,0,0,0-.482-.048h-.434a.434.434,0,0,0-.241.048h0l-1.108-1.927.048-.048.1-.1c.048-.048.1-.145.193-.193l.1-.1c.048-.1.1-.145.145-.241l.048-.048a2.35,2.35,0,0,0,.145-.337c0-.048,0-.048.048-.1.048-.1.048-.193.1-.289,0-.048,0-.1.048-.1a2.087,2.087,0,0,1,.048-.241v-.1c0-.145.048-.241.048-.385a1.061,1.061,0,0,0-.048-.385v-.1a2.087,2.087,0,0,0-.048-.241c0-.048,0-.1-.048-.1-.048-.1-.048-.193-.1-.289,0-.048,0-.048-.048-.1-.048-.1-.1-.241-.145-.337l-.048-.048c-.048-.1-.1-.145-.145-.241,0-.048-.048-.048-.1-.1s-.1-.145-.193-.193l-.1-.1-.048-.048L34.3,21.812h0c.1,0,.145.048.241.048h.434a1.639,1.639,0,0,0,.482-.048h.1c.145-.048.289-.048.434-.1.048,0,.048,0,.1-.048a1.711,1.711,0,0,0,.434-.193.047.047,0,0,0,.048-.048c.145-.1.241-.145.385-.241A.047.047,0,0,0,37,21.137c.1-.1.241-.193.337-.289l.048-.048c.1-.1.193-.241.289-.337l.048-.048a2.841,2.841,0,0,0,.193-.385h0l.145-.434v-.048h5.156l3.758,6.409Zm-11.371-8a.168.168,0,0,1,.1.048h0a1.637,1.637,0,0,1,.819,1.446,1.683,1.683,0,0,1-.867,1.446.168.168,0,0,0-.1.048,1.892,1.892,0,0,1-.675.145,1.686,1.686,0,1,1,0-3.373A2.131,2.131,0,0,1,31.843,24.462Zm4.867-5.734a1.707,1.707,0,0,1-1.686,1.686,1.539,1.539,0,0,1-.675-.145c-.048,0-.1-.048-.145-.1a1.637,1.637,0,0,1-.819-1.446,1.334,1.334,0,0,1,.048-.434,1.62,1.62,0,0,1,.771-1.012h0a1.776,1.776,0,0,1,.819-.241A1.676,1.676,0,0,1,36.71,18.728Zm-13.781-6.5h7.517l2.457,4.24-.048.048-.1.1c-.048.048-.1.145-.193.193l-.1.1c-.048.1-.1.145-.145.241l-.048.048a2.349,2.349,0,0,0-.145.337c0,.048,0,.048-.048.1-.048.1-.048.193-.1.289,0,.048,0,.1-.048.1a2.087,2.087,0,0,1-.048.241v.1c0,.145-.048.241-.048.385a1.061,1.061,0,0,0,.048.385v.1a2.087,2.087,0,0,0,.048.241c0,.048,0,.1.048.1.048.1.048.193.1.289v.048a1.208,1.208,0,0,0,.193.337v.048c.048.1.145.193.193.289l.048.048a.581.581,0,0,0,.241.241l.048.048.048.048-1.108,1.927h0c-.048,0-.145-.048-.193-.048H31.12a1.639,1.639,0,0,0-.482.048h-.1c-.145.048-.289.048-.434.1-.048,0-.048,0-.1.048a1.711,1.711,0,0,0-.434.193.047.047,0,0,0-.048.048c-.145.1-.241.145-.385.241a.047.047,0,0,0-.048.048c-.1.1-.241.193-.337.289l-.048.048c-.1.1-.193.241-.289.337l-.048.048a2.841,2.841,0,0,0-.193.385h0l-.145.434v.048H25.29v-.048l-.145-.434h0a2.861,2.861,0,0,0-.193-.385l-.048-.048a2.1,2.1,0,0,0-.289-.337l-.048-.048a2.1,2.1,0,0,0-.337-.289.047.047,0,0,1-.048-.048,1.049,1.049,0,0,0-.385-.241.047.047,0,0,1-.048-.048,1.711,1.711,0,0,0-.434-.193c-.048,0-.048,0-.1-.048a1.407,1.407,0,0,0-.434-.1h-.1a1.639,1.639,0,0,0-.482-.048h-.434c-.1,0-.145.048-.241.048h0L19.122,18.68ZM21.58,27.449h0a1.639,1.639,0,0,1,0-2.987,2.019,2.019,0,0,1,.723-.193,1.686,1.686,0,1,1,0,3.373A1.36,1.36,0,0,1,21.58,27.449Zm8.866,12.239H22.929l-3.71-6.5,2.409-4.192h0c.1,0,.145.048.241.048H22.3a1.639,1.639,0,0,0,.482-.048h.1c.145-.048.289-.048.434-.1.048,0,.048,0,.1-.048a1.712,1.712,0,0,0,.434-.193.047.047,0,0,0,.048-.048c.145-.1.241-.145.385-.241a.047.047,0,0,0,.048-.048c.1-.1.241-.193.337-.289l.048-.048c.1-.1.193-.241.289-.337l.048-.048a2.841,2.841,0,0,0,.193-.385h0l.145-.434v-.048h2.747v.048l.145.434h0a2.861,2.861,0,0,0,.193.385l.048.048a2.1,2.1,0,0,0,.289.337l.048.048a2.1,2.1,0,0,0,.337.289.047.047,0,0,1,.048.048,1.049,1.049,0,0,0,.385.241.047.047,0,0,1,.048.048,1.712,1.712,0,0,0,.434.193c.048,0,.048,0,.1.048a1.407,1.407,0,0,0,.434.1h.1a1.639,1.639,0,0,0,.482.048h.434a.434.434,0,0,0,.241-.048h0L33,30.918l-.048.048-.1.1c-.048.048-.1.145-.193.193l-.1.1c-.048.1-.1.145-.145.241l-.048.048a2.349,2.349,0,0,0-.145.337c0,.048,0,.048-.048.1-.048.1-.048.193-.1.289,0,.048,0,.1-.048.1a2.087,2.087,0,0,1-.048.241v.1c0,.145-.048.241-.048.385a1.061,1.061,0,0,0,.048.385v.1a2.087,2.087,0,0,0,.048.241c0,.048,0,.1.048.1.048.1.048.193.1.289,0,.048,0,.048.048.1.048.1.1.241.145.337l.048.048c.048.1.1.145.145.241,0,.048.048.048.1.1s.1.145.193.193l.1.1.048.048Zm4.578-4.818a1.69,1.69,0,0,1-1.638-1.686,1.683,1.683,0,0,1,.867-1.446.168.168,0,0,0,.1-.048,1.892,1.892,0,0,1,.675-.145,1.707,1.707,0,0,1,1.686,1.686A1.636,1.636,0,0,1,35.023,34.87Z" transform="translate(492.9 2685.404)"/></g></svg>