<svg xmlns="http://www.w3.org/2000/svg" width="48.499" height="41.615" viewBox="0 0 48.499 41.615"><defs><style>.a{fill:#72787a;opacity:0.4;}</style></defs><path class="a" d="M-2674.254-425.385c-4.856,0-6.747-2.258-6.747-8.059v-32.487a1.028,1.028,0,0,1,.981-1.069h35a1.03,1.03,0,0,1,.984,1.069v14.557h10.553a1.026,1.026,0,0,1,.979,1.069v16.861c0,5.8-1.891,8.059-6.746,8.059Zm30.222-8.059c0,5.065,1.476,5.921,4.785,5.921s4.783-.856,4.783-5.921h0v-15.791h-9.57Zm-35,0c0,5.065,1.477,5.921,4.783,5.921h29.589c-.924-1.3-1.333-3.227-1.333-5.921v-31.418h-33.039Zm5.188.3a1.027,1.027,0,0,1-.981-1.069v-17.04a1.027,1.027,0,0,1,.981-1.069h11.332a1.031,1.031,0,0,1,.984,1.069v17.04a1.029,1.029,0,0,1-.984,1.069Zm.983-2.139h9.369v-14.9h-9.369Zm13.377-1.068v-2.138h9.284v2.138Zm0-5.313V-443.8h9.284v2.138Zm0-5.315v-2.138h9.284v2.138Zm-15.341-8.435v-2.138h24.624v2.138Z" transform="translate(2681 467)"/></svg>