<svg xmlns="http://www.w3.org/2000/svg" width="64" height="64" viewBox="0 0 64 64"><defs><style>.a{opacity:0.2;}.b{fill:rgba(255,255,255,0);}</style></defs><g class="a" transform="translate(0.17 0.17)"><rect class="b" width="64" height="64" transform="translate(-0.17 -0.17)"/><path d="M43.524,42.206H13.19a13.189,13.189,0,1,1,0-26.378,15.817,15.817,0,0,1,31.423-2.583,14.5,14.5,0,0,1-1.09,28.961Zm-14.5-31.655a1.318,1.318,0,0,0-.934.391L18.76,20.27a1.313,1.313,0,0,0,0,1.864l.546.546a1.3,1.3,0,0,0,.931.389h3.5v9.9a1.32,1.32,0,0,0,1.32,1.318h7.913a1.319,1.319,0,0,0,1.318-1.318v-9.9h3.5a1.3,1.3,0,0,0,.933-.389l.546-.546a1.317,1.317,0,0,0,0-1.864l-9.323-9.328A1.312,1.312,0,0,0,29.019,10.551Z" transform="translate(2.637 10.552)"/></g></svg>