<svg xmlns="http://www.w3.org/2000/svg" xmlns:xlink="http://www.w3.org/1999/xlink" width="66" height="66" viewBox="0 0 66 66"><defs><style>.a{fill:url(#a);}.b{fill:#fff;}</style><linearGradient id="a" x1="0.5" x2="0.5" y2="1" gradientUnits="objectBoundingBox"><stop offset="0" stop-color="#dd1818"/><stop offset="1" stop-color="#870000"/></linearGradient></defs><g transform="translate(0 -0.257)"><circle class="a" cx="33" cy="33" r="33" transform="translate(0 0.257)"/><path class="b" d="M36.45,6.508l.137-.307a.836.836,0,0,0-.444-1.126.865.865,0,0,0-1.126.444l-1.5,3.447a10.469,10.469,0,0,0-3.276-.546,10.263,10.263,0,0,0-9.385,6.143v.068A9.9,9.9,0,0,0,20,18.657a10.25,10.25,0,0,0,5.392,9.01l-1.024,2.389a.836.836,0,0,0,.444,1.126,12.986,12.986,0,0,0,4.607,1.092v1.741H24.3a.853.853,0,1,0,0,1.706H36.245a.845.845,0,0,0,.853-.853.874.874,0,0,0-.887-.853H31.092V32.275A13.643,13.643,0,0,0,36.45,6.508Zm-6.211,3.618a8.535,8.535,0,0,1,8.532,8.532,8.1,8.1,0,0,1-.41,2.594L22.8,14.494A8.541,8.541,0,0,1,30.239,10.125Zm-8.532,8.532a8.1,8.1,0,0,1,.41-2.594l15.563,6.757a8.528,8.528,0,0,1-15.972-4.164Zm19.487,4.778A11.946,11.946,0,0,1,26.28,29.92l.683-1.57a10.469,10.469,0,0,0,3.276.546,10.263,10.263,0,0,0,9.385-6.143v-.068a9.9,9.9,0,0,0,.853-4.027,10.25,10.25,0,0,0-5.392-9.01l.683-1.57A11.957,11.957,0,0,1,41.194,23.435Z" transform="translate(1.056 12.892)"/></g></svg>