<svg xmlns="http://www.w3.org/2000/svg" xmlns:xlink="http://www.w3.org/1999/xlink" width="66" height="66" viewBox="0 0 66 66"><defs><style>.a{fill:url(#a);}.b{fill:#fff;}</style><linearGradient id="a" x1="0.5" x2="0.5" y2="1" gradientUnits="objectBoundingBox"><stop offset="0" stop-color="#dd1818"/><stop offset="1" stop-color="#870000"/></linearGradient></defs><g transform="translate(0 -0.257)"><circle class="a" cx="33" cy="33" r="33" transform="translate(0 0.257)"/><g transform="translate(20.581 17.895)"><path class="b" d="M29.854,56.756H27.8l-5.665-5.041a2.167,2.167,0,0,0-2.865,0l-5.683,5.041H11.015l3.078-2.733a.476.476,0,0,0-.637-.708L9.594,56.756H7.182a.472.472,0,1,0,0,.944H29.84a.472.472,0,1,0,0-.944Zm-9.965-4.333a1.218,1.218,0,0,1,1.61,0l4.881,4.333H15.009Z" transform="translate(-6.71 -27.489)"/><path class="b" d="M17.269,25.5a3.134,3.134,0,0,1,1,.165l2.36.812a.47.47,0,0,0,.312-.887l-2.36-.817a4.178,4.178,0,0,0-1.326-.217,1,1,0,0,1-.878-.524H27.909a5.084,5.084,0,0,0,5.051-5.438,5.192,5.192,0,0,0-5.192-4.72H24.723V6.32a1.723,1.723,0,0,0-1-1.562V3.6a1.3,1.3,0,0,0-.16-2.6H19.412a1.3,1.3,0,0,0-.16,2.6V4.748a1.728,1.728,0,0,0-1,1.562v8.634a.472.472,0,0,0-.363.448v2.332a.472.472,0,0,0,.472.472h.562v2.771a.472.472,0,0,0,.472.472h1.435a.472.472,0,0,0,.472-.472V18.2h.472v2.2a.472.472,0,0,0,.472.472H23.7a.472.472,0,0,0,.472-.472V18.2h.316a.472.472,0,0,0,.472-.472V15.393a.472.472,0,0,0-.26-.415v-.165h3.026a4.22,4.22,0,0,1,4.248,3.847,4.14,4.14,0,0,1-4.069,4.428H15.782a.472.472,0,0,0-.472.472,1.945,1.945,0,0,0,1.959,1.94Zm2.9-21.889h2.606v.972H20.172Zm-1.147-1.3a.363.363,0,0,1,.387-.363h4.173a.363.363,0,1,1,0,.722H19.412a.363.363,0,0,1-.387-.359Zm.146,4a.784.784,0,0,1,.779-.784h3.045a.784.784,0,0,1,.784.784v8.61H19.171Zm-.363,9.554h5.23v1.388h-5.23ZM20.356,20.5h-.515V18.2h.515Zm2.9-.576h-.538V18.2h.515Z" transform="translate(-11.25 -1)"/><path class="b" d="M47.381,18.129a.472.472,0,1,0-.472.812,8.407,8.407,0,0,1,4.126,7.213v2.832A5.839,5.839,0,0,1,45.842,34.8a.471.471,0,0,0,.057.939h.052a6.779,6.779,0,0,0,6.037-6.75V26.158A9.342,9.342,0,0,0,47.381,18.129Z" transform="translate(-27.149 -9.996)"/><path class="b" d="M38.846,20.1a2.266,2.266,0,1,0-2.266-2.261A2.266,2.266,0,0,0,38.846,20.1Zm0-3.583a1.317,1.317,0,1,1-.936.386,1.322,1.322,0,0,1,.936-.386Z" transform="translate(-22.48 -8.692)"/><path class="b" d="M35.756,56.74h-.944a.472.472,0,1,0,0,.944h.944a.472.472,0,0,0,0-.944Z" transform="translate(-21.297 -30.428)"/></g></g></svg>