<svg xmlns="http://www.w3.org/2000/svg" xmlns:xlink="http://www.w3.org/1999/xlink" width="66" height="66" viewBox="0 0 66 66"><defs><style>.a{fill:url(#a);}.b{fill:#fff;}</style><linearGradient id="a" x1="0.5" x2="0.5" y2="1" gradientUnits="objectBoundingBox"><stop offset="0" stop-color="#dd1818"/><stop offset="1" stop-color="#870000"/></linearGradient></defs><circle class="a" cx="33" cy="33" r="33"/><g transform="translate(17.974 17.978)"><g transform="translate(17.739 17.73)"><path class="b" d="M48.208,51.82c-.059,0-.118,0-.177,0a3.625,3.625,0,0,1-2.62-1.319l-5.763-7.023a.6.6,0,0,1,.131-.882A10.614,10.614,0,0,0,42.6,39.773a.6.6,0,0,1,.882-.131L50.5,45.405a3.618,3.618,0,0,1-2.3,6.415Zm-7.222-8.612,5.355,6.526a2.388,2.388,0,0,0,1.749.88,2.361,2.361,0,0,0,1.827-.7,2.416,2.416,0,0,0-.176-3.576l-6.526-5.355a12.08,12.08,0,0,1-2.229,2.229Z" transform="translate(-39.513 -39.506)"/></g><path class="b" d="M21.95,33.9A11.95,11.95,0,1,1,30.4,13.5h0A11.951,11.951,0,0,1,21.95,33.9Zm0-22.691a10.74,10.74,0,1,0,7.6,3.144h0A10.717,10.717,0,0,0,21.95,11.208Z" transform="translate(-9.999 -10.006)"/><g transform="translate(5.403 9.163)"><path class="b" d="M21.793,33.956h-2.2a.6.6,0,0,1-.6-.6v-7.5a.6.6,0,0,1,.6-.6h2.2a.6.6,0,0,1,.6.6v7.5A.6.6,0,0,1,21.793,33.956Zm-1.6-1.2h1v-6.3h-1Z" transform="translate(-18.989 -25.252)"/></g><g transform="translate(10.247 6.018)"><path class="b" d="M29.853,31.868h-2.2a.6.6,0,0,1-.6-.6V20.619a.6.6,0,0,1,.6-.6h2.2a.6.6,0,0,1,.6.6V31.267A.6.6,0,0,1,29.853,31.868Zm-1.6-1.2h1V21.22h-1Z" transform="translate(-27.048 -20.018)"/></g><g transform="translate(15.092 11.099)"><path class="b" d="M37.914,35.241h-2.2a.6.6,0,0,1-.6-.6V29.074a.6.6,0,0,1,.6-.6h2.2a.6.6,0,0,1,.6.6V34.64A.6.6,0,0,1,37.914,35.241Zm-1.6-1.2h1V29.675h-1Z" transform="translate(-35.109 -28.473)"/></g></g></svg>