<svg xmlns="http://www.w3.org/2000/svg" xmlns:xlink="http://www.w3.org/1999/xlink" width="24" height="24" viewBox="0 0 24 24"><defs><style>.a{opacity:0;}.b{fill:#fff;}.c{fill:none;stroke:#5d5d5d;}.d{fill:url(#a);}</style><linearGradient id="a" x1="0.5" x2="0.5" y2="1" gradientUnits="objectBoundingBox"><stop offset="0" stop-color="#dd1818"/><stop offset="1" stop-color="#870000"/></linearGradient></defs><g transform="translate(-294.5 -384)"><g class="a"><rect class="b" width="24" height="24" transform="translate(294.5 384)"/><rect class="c" width="23" height="23" transform="translate(295 384.5)"/></g><path class="d" d="M317.1,396.481v0a.473.473,0,0,0-.058-.214.033.033,0,0,0-.006-.023l-3.376-5.779c-.006-.01-.018-.013-.025-.023a.473.473,0,0,0-.392-.216h-6.265v-2.9h.964a.482.482,0,0,0,0-.964h-2.893a.482.482,0,0,0,0,.964h.965v2.892h-6.266a.473.473,0,0,0-.392.216c-.007.01-.019.013-.025.023l-3.373,5.784a.033.033,0,0,1-.006.023.475.475,0,0,0-.06.214v0h0v.479a3.856,3.856,0,1,0,7.712,0v-.482h0v-.005a.473.473,0,0,0-.058-.214.034.034,0,0,0-.006-.023L300.6,391.18h5.427v13.5H304.09a.482.482,0,0,0,0,.964h4.82a.482.482,0,0,0,0-.964h-1.928v-13.5h5.427l-2.951,5.059a.033.033,0,0,1-.006.023.472.472,0,0,0-.058.214v0h0v.479a3.856,3.856,0,1,0,7.712,0v-.482Zm-17.352,3.379a2.9,2.9,0,0,1-2.892-2.9h5.784A2.9,2.9,0,0,1,299.752,399.86ZM302.287,396h-5.07l2.535-4.346Zm10.961-4.346L315.783,396h-5.07Zm0,8.2a2.9,2.9,0,0,1-2.892-2.9h5.784a2.9,2.9,0,0,1-2.892,2.9Z"/><path class="d" d="M308.91,405.895h-4.82a.732.732,0,0,1,0-1.465h1.683v-13h-4.742l2.764,4.762a.722.722,0,0,1,.063.275v.493a4.106,4.106,0,1,1-8.212,0v-.479a.742.742,0,0,1,.066-.29v-.019l3.461-5.91a.721.721,0,0,1,.577-.3h6.018v-2.392h-.714a.732.732,0,0,1,0-1.464h2.893a.732.732,0,1,1,0,1.464h-.714v2.4h6.015a.718.718,0,0,1,.574.291l.058.07,3.326,5.694.151-.151v1.085a4.106,4.106,0,1,1-8.212,0v-.479a.757.757,0,0,1,.064-.289v-.02l2.766-4.742h-4.742v13h1.678a.732.732,0,0,1,0,1.465Zm-4.82-.965a.232.232,0,0,0,0,.465h4.82a.232.232,0,0,0,0-.465h-2.178v-14h6.113l-3.2,5.488h0c.005,0,0,.033,0,.068v.474a3.606,3.606,0,0,0,7.212.051l0-.535a.21.21,0,0,0-.027-.093l-.031-.074-3.357-5.721a.234.234,0,0,0-.194-.117h-6.513v-3.4h1.214a.232.232,0,1,0,0-.464h-2.892a.232.232,0,0,0,0,.464h1.214v3.392h-6.516a.221.221,0,0,0-.182.1l-.042.052-3.377,5.8h0a.632.632,0,0,1-.006.066v.476a3.606,3.606,0,1,0,7.212,0v-.482a.219.219,0,0,0-.027-.1l-.031-.074-3.139-5.376h6.112v14ZM313,400.111V400.1a3.158,3.158,0,0,1-2.892-3.138v-.25h6.284v.25a3.157,3.157,0,0,1-3.141,3.15Zm-2.38-2.9a2.656,2.656,0,0,0,2.631,2.4h.086a2.655,2.655,0,0,0,2.543-2.4Zm-10.865,2.9h0a3.156,3.156,0,0,1-3.141-3.15v-.25h6.284v.25A3.156,3.156,0,0,1,299.753,400.11Zm-2.631-2.9a2.641,2.641,0,0,0,5.26,0Zm19.1-.956h-5.942l2.971-5.092Zm-5.071-.5h4.2l-2.1-3.6Zm-8.426.5h-5.94l2.97-5.092Zm-5.07-.5h4.2l-2.1-3.6Z"/></g></svg>