<svg xmlns="http://www.w3.org/2000/svg" xmlns:xlink="http://www.w3.org/1999/xlink" width="24" height="24" viewBox="0 0 24 24"><defs><style>.a{fill:#fff;stroke:#707070;opacity:0;}.b{fill:url(#a);}.c{stroke:none;}.d{fill:none;}</style><linearGradient id="a" x1="0.5" x2="0.5" y2="1" gradientUnits="objectBoundingBox"><stop offset="0" stop-color="#dd1818"/><stop offset="1" stop-color="#870000"/></linearGradient></defs><g transform="translate(-766 -2852)"><g class="a" transform="translate(766 2852)"><rect class="c" width="24" height="24"/><rect class="d" x="0.5" y="0.5" width="23" height="23"/></g><g transform="translate(764.602 2846.149)"><path class="b" d="M3.993,15.891a.614.614,0,0,0,0,.092v.035a.614.614,0,0,0,.023.074l.012.031a.614.614,0,0,0,.051.094l.01.014a.614.614,0,0,0,.047.059l8.778,9.593h0a.614.614,0,0,0,.086.09l.02.016a.614.614,0,0,0,.092.061h.016a.614.614,0,0,0,.117.043h.027a.614.614,0,0,0,.129.016h0a.614.614,0,0,0,.119-.014l.059-.016h.033l.02-.01a.614.614,0,0,0,.076-.039l.033-.023a.614.614,0,0,0,.074-.057l.012-.012a.614.614,0,0,0,.061-.065l8.77-9.582a.614.614,0,0,0,.047-.059l.01-.014a.614.614,0,0,0,.051-.094l.012-.031a.614.614,0,0,0,.023-.074v-.035a.614.614,0,0,0,0-.092v-.014h0a.614.614,0,0,0-.01-.111c0-.01,0-.023,0-.033a.614.614,0,0,0-.023-.072l-.008-.051v-.023L19.853,9.929a.614.614,0,0,0-.546-.336H7.509a.614.614,0,0,0-.092,0H7.391a.614.614,0,0,0-.086.023H7.288a.614.614,0,0,0-.1.049l-.02.014a.614.614,0,0,0-.065.051l-.025.023a.614.614,0,0,0-.068.08h0a.614.614,0,0,0-.041.068L4.065,15.6v.023l-.016.039a.614.614,0,0,0-.023.072v.033a.614.614,0,0,0-.01.111h0S3.993,15.887,3.993,15.891ZM7.43,11.712,8.8,15.262H5.614ZM21.2,15.262H18.039L19.4,11.748ZM16.246,16.49,13.408,23.8l-2.82-7.306Zm-5.37-1.228,2.532-3.837,2.534,3.837Zm6.688,1.228h3.248l-5.655,6.2Zm-.585-1.885-2.5-3.784h3.966Zm-7.126-.018L8.4,10.821h3.932Zm-.581,1.9,2.386,6.2L6,16.49Z" transform="translate(0 0)"/></g></g></svg>