<svg xmlns="http://www.w3.org/2000/svg" xmlns:xlink="http://www.w3.org/1999/xlink" width="24" height="24" viewBox="0 0 24 24"><defs><style>.a{opacity:0;}.b{fill:#fff;}.c{fill:#5d5d5d;}.d{fill:url(#a);}</style><linearGradient id="a" x1="0.5" x2="0.5" y2="1" gradientUnits="objectBoundingBox"><stop offset="0" stop-color="#dd1818"/><stop offset="1" stop-color="#870000"/></linearGradient></defs><g transform="translate(-294.5 -331)"><g class="a"><rect class="b" width="24" height="24" transform="translate(294.5 331)"/><path class="c" d="M318.5,355h-24V331h24Zm-23-1h22V332h-22Z"/></g><path class="d" d="M315.912,344.751l-1.245-1.685a.165.165,0,0,1,0-.2l1.231-1.7a1.489,1.489,0,0,0-.758-2.294l-1.986-.632a.167.167,0,0,1-.116-.159v-2.1a1.49,1.49,0,0,0-1.96-1.413l-1.986.662a.162.162,0,0,1-.185-.06l-1.244-1.685a1.472,1.472,0,0,0-1.2-.612h0a1.466,1.466,0,0,0-1.212.622l-1.218,1.7a.162.162,0,0,1-.185.06l-1.991-.658a1.489,1.489,0,0,0-1.956,1.447l.017,2.1a.167.167,0,0,1-.116.159l-1.986.645a1.493,1.493,0,0,0-.738,2.317l1.238,1.668a.165.165,0,0,1,0,.2l-1.232,1.686a1.489,1.489,0,0,0,.758,2.294l1.986.632a.167.167,0,0,1,.116.159v2.1a1.49,1.49,0,0,0,1.96,1.413l1.986-.664a.162.162,0,0,1,.185.06l1.231,1.7a1.472,1.472,0,0,0,1.2.612h0a1.469,1.469,0,0,0,1.2-.622l1.218-1.7a.162.162,0,0,1,.185-.06l1.986.662a1.49,1.49,0,0,0,1.976-1.447v-2.1a.167.167,0,0,1,.116-.159l1.986-.662a1.493,1.493,0,0,0,.748-2.319Zm-.728,1.036a.491.491,0,0,1-.331.331l-1.986.662a1.152,1.152,0,0,0-.8,1.109v2.1a.5.5,0,0,1-.5.5.52.52,0,0,1-.166-.027l-1.984-.667a1.155,1.155,0,0,0-1.271.42l-1.221,1.719a.488.488,0,0,1-.4.209h0a.48.48,0,0,1-.4-.209l-1.231-1.695a1.158,1.158,0,0,0-1.3-.417l-1.986.662a.491.491,0,0,1-.447-.066.5.5,0,0,1-.205-.4v-2.113a1.158,1.158,0,0,0-.808-1.106l-1.986-.632a.483.483,0,0,1-.331-.331.5.5,0,0,1,.06-.434l1.226-1.694a1.151,1.151,0,0,0,0-1.367l-1.236-1.687a.5.5,0,0,1,.245-.768l1.991-.66a1.152,1.152,0,0,0,.8-1.109l-.027-2.072a.5.5,0,0,1,.5-.5.52.52,0,0,1,.166.027l1.986.662a1.155,1.155,0,0,0,1.294-.453l1.218-1.7a.486.486,0,0,1,.4-.209h0a.481.481,0,0,1,.4.192l1.236,1.694a1.158,1.158,0,0,0,1.3.417l1.986-.662a.5.5,0,0,1,.628.324.518.518,0,0,1,.024.146v2.1a1.158,1.158,0,0,0,.808,1.106l1.986.632a.483.483,0,0,1,.331.331.5.5,0,0,1-.06.447l-1.231,1.7a1.151,1.151,0,0,0,0,1.367l1.231,1.685a.492.492,0,0,1,.086.447Zm-5.468-5.1h-.95a2.675,2.675,0,0,0-.828-2.579,1.7,1.7,0,0,0-1.711-.331.82.82,0,0,0-.49.745c0,.189,0,.374.017.553a3.055,3.055,0,0,1-.162,1.44,2.476,2.476,0,0,1-1.149.718.508.508,0,0,0-.331-.119h-2.168a.5.5,0,0,0-.5.5v4.4a.5.5,0,0,0,.5.5h2.177a.509.509,0,0,0,.331-.122l.894.331a4.794,4.794,0,0,0,1.672.3h2.625a1.493,1.493,0,0,0,1.478-1.3l.41-2.979a1.82,1.82,0,0,0-1.559-2.049,1.769,1.769,0,0,0-.262-.017Zm-6.1,4.826H302.44V342.1h1.181Zm6.912-2.9-.407,2.979a.5.5,0,0,1-.493.43h-2.625a3.763,3.763,0,0,1-1.324-.238l-1.069-.394v-3.164a3.284,3.284,0,0,0,1.877-1.3,3.878,3.878,0,0,0,.255-1.9v-.375a.9.9,0,0,1,.566.209c.288.228.722.818.387,2.2a.5.5,0,0,0,.362.607.475.475,0,0,0,.1.015h1.549a.822.822,0,0,1,.817.936Z"/><path class="d" d="M306.5,353.375a1.724,1.724,0,0,1-1.4-.716l-1.2-1.644-1.926.644a1.728,1.728,0,0,1-.548.089h0a1.742,1.742,0,0,1-1.74-1.739V347.97l-1.928-.614a1.74,1.74,0,0,1-.885-2.678l1.2-1.639-1.2-1.62a1.759,1.759,0,0,1-.264-.511,1.743,1.743,0,0,1,1.127-2.193l1.927-.626-.016-2.038a1.739,1.739,0,0,1,2.284-1.686l1.932.638,1.181-1.649a1.721,1.721,0,0,1,1.417-.726h.005a1.729,1.729,0,0,1,1.4.716l1.206,1.634,1.927-.642a1.738,1.738,0,0,1,.548-.089h0a1.742,1.742,0,0,1,1.74,1.738v2.04l1.928.614a1.724,1.724,0,0,1,.494.248,1.745,1.745,0,0,1,.392,2.43l-1.2,1.649.9,1.218.008-.029.309.413a1.742,1.742,0,0,1-.873,2.707l-1.927.643v2.04a1.738,1.738,0,0,1-2.308,1.683L309.09,351l-1.181,1.648a1.717,1.717,0,0,1-1.4.727Zm-2.559-2.875a.417.417,0,0,1,.338.173l1.229,1.693a1.227,1.227,0,0,0,.993.509h.005a1.222,1.222,0,0,0,1-.516l1.219-1.7a.413.413,0,0,1,.469-.151l1.984.66a1.242,1.242,0,0,0,1.58-.766,1.27,1.27,0,0,0,.067-.438v-2.105a.416.416,0,0,1,.291-.4l1.982-.66a1.246,1.246,0,0,0,.818-1.56,1.3,1.3,0,0,0-.079-.193l-.122-.148-1.245-1.685a.413.413,0,0,1,0-.5l1.228-1.691a1.242,1.242,0,0,0-.278-1.731,1.28,1.28,0,0,0-.354-.178l-1.986-.632a.415.415,0,0,1-.29-.4v-2.1a1.243,1.243,0,0,0-1.24-1.239h0a1.235,1.235,0,0,0-.39.064l-1.986.661a.412.412,0,0,1-.469-.155l-1.24-1.678a1.23,1.23,0,0,0-.995-.511h-.014a1.214,1.214,0,0,0-1,.516l-1.22,1.7a.411.411,0,0,1-.469.15l-1.989-.657a1.24,1.24,0,0,0-1.627,1.205l.017,2.1a.413.413,0,0,1-.291.4l-1.984.645a1.242,1.242,0,0,0-.615,1.929l1.239,1.669a.418.418,0,0,1,0,.5l-1.23,1.683a1.24,1.24,0,0,0,.278,1.73,1.248,1.248,0,0,0,.353.178l1.987.632a.413.413,0,0,1,.29.4v2.1a1.241,1.241,0,0,0,1.24,1.239h0a1.235,1.235,0,0,0,.39-.063l1.986-.664A.389.389,0,0,1,303.941,350.5Zm5.089.48h0Zm-5.157-.015h0Zm9.4-3.029h0Zm-13.575-.027h0Zm13.627-.055v0Zm-15.205-4.766h0Zm16.755-.077,0,0Zm-16.757-.02h0Zm16.752-.076v0Zm-15.141-4.845h0Zm4.1-3.015h0Zm5.276-.032,0,0Zm-5.181,0h0Zm5.087-.023h0Zm-2.49,17.4a.725.725,0,0,1-.6-.318L304.7,350.39a.909.909,0,0,0-1.019-.327l-1.986.662a.743.743,0,0,1-.672-.1.754.754,0,0,1-.309-.6v-2.114a.9.9,0,0,0-.634-.867l-1.986-.633a.726.726,0,0,1-.495-.5.747.747,0,0,1,.093-.642l1.23-1.7a.9.9,0,0,0,0-1.071l-1.237-1.688a.753.753,0,0,1,.165-1.049.806.806,0,0,1,.2-.1l1.992-.66a.9.9,0,0,0,.629-.869l-.027-2.072a.749.749,0,0,1,.744-.757.662.662,0,0,1,.248.04l1.985.662a.9.9,0,0,0,1.008-.357l1.222-1.7a.757.757,0,0,1,.627-.314.724.724,0,0,1,.576.292l1.238,1.7a.906.906,0,0,0,1.019.328l1.986-.662a.749.749,0,0,1,.945.485.731.731,0,0,1,.036.217v2.105a.905.905,0,0,0,.633.868l1.987.632a.724.724,0,0,1,.5.5.748.748,0,0,1-.1.657l-1.235,1.7a.9.9,0,0,0,0,1.072L315.3,345.2a.742.742,0,0,1,.126.657l0,0a.738.738,0,0,1-.5.5l-1.978.659a.9.9,0,0,0-.629.869v2.1a.752.752,0,0,1-.744.754.84.84,0,0,1-.251-.041l-1.981-.666a.908.908,0,0,0-.989.331l-1.219,1.716A.759.759,0,0,1,306.522,352.4Zm-2.558-2.88a1.405,1.405,0,0,1,1.136.579l1.231,1.695a.258.258,0,0,0,.2.106.239.239,0,0,0,.2-.1l1.222-1.721a1.407,1.407,0,0,1,1.548-.514l1.991.669a.24.24,0,0,0,.082.014h0a.251.251,0,0,0,.248-.252v-2.1a1.393,1.393,0,0,1,.974-1.347l1.982-.661a.243.243,0,0,0,.168-.158h0a.241.241,0,0,0-.043-.221l-1.236-1.692a1.4,1.4,0,0,1,0-1.663l1.23-1.694a.253.253,0,0,0,.026-.219.242.242,0,0,0-.164-.172l-1.993-.634a1.4,1.4,0,0,1-.982-1.344v-2.1a.218.218,0,0,0-.011-.066.259.259,0,0,0-.124-.15.24.24,0,0,0-.191-.016l-1.983.661a1.405,1.405,0,0,1-1.581-.507l-1.236-1.694a.232.232,0,0,0-.189-.089.239.239,0,0,0-.2.1l-1.221,1.7a1.394,1.394,0,0,1-1.571.546l-1.991-.664a.266.266,0,0,0-.085-.014.244.244,0,0,0-.176.075.247.247,0,0,0-.072.176l.027,2.072a1.4,1.4,0,0,1-.974,1.35l-1.989.659a.263.263,0,0,0-.066.035.252.252,0,0,0-.055.35l1.236,1.685a1.4,1.4,0,0,1,0,1.663l-1.224,1.693a.244.244,0,0,0-.025.209.237.237,0,0,0,.162.169l1.993.634a1.4,1.4,0,0,1,.982,1.344v2.113a.25.25,0,0,0,.1.2.239.239,0,0,0,.218.031l1.989-.662A1.433,1.433,0,0,1,303.964,349.517Zm3.05-2.244a5.041,5.041,0,0,1-1.755-.315l-.774-.287a.752.752,0,0,1-.364.093h-2.177a.75.75,0,0,1-.75-.75v-4.4a.75.75,0,0,1,.75-.75h2.168a.88.88,0,0,1,.37.094,2.225,2.225,0,0,0,.892-.575,2.821,2.821,0,0,0,.132-1.276c-.019-.2-.019-.388-.019-.585a1.073,1.073,0,0,1,.639-.974,1.952,1.952,0,0,1,1.978.373,2.934,2.934,0,0,1,.958,2.516l.645,0a2.447,2.447,0,0,1,.3.019,2.073,2.073,0,0,1,1.772,2.331l-.41,2.979a1.75,1.75,0,0,1-1.726,1.511h-2.629Zm-2.613-1.166,1.032.382a4.55,4.55,0,0,0,1.581.284h2.629a1.247,1.247,0,0,0,1.23-1.078l.41-2.98a1.574,1.574,0,0,0-1.345-1.768c-.036-.005-.07-.008-.1-.01h-1.38l.068-.305a2.424,2.424,0,0,0-.75-2.338,1.448,1.448,0,0,0-1.459-.282.568.568,0,0,0-.325.512c0,.179,0,.356.016.527a3.314,3.314,0,0,1-.176,1.551l-.05.081a2.711,2.711,0,0,1-1.265.79l-.128.037-.1-.086a.258.258,0,0,0-.166-.06h-2.172a.25.25,0,0,0-.25.25v4.4a.25.25,0,0,0,.25.25h2.177a.261.261,0,0,0,.169-.062Zm2.6.165a4,4,0,0,1-1.4-.253l-1.232-.455v-3.532l.188-.048a3.044,3.044,0,0,0,1.735-1.2,3.692,3.692,0,0,0,.211-1.727l0-.657.253,0a1.148,1.148,0,0,1,.724.267c.33.262.838.933.469,2.446a.257.257,0,0,0,.028.192.249.249,0,0,0,.153.114l1.592.007a1.111,1.111,0,0,1,.81.367,1.073,1.073,0,0,1,.255.852l-.407,2.979a.756.756,0,0,1-.74.647H307Zm-2.134-1.056.906.334a3.511,3.511,0,0,0,1.229.222h2.633a.253.253,0,0,0,.246-.215l.406-2.978a.565.565,0,0,0-.136-.456.558.558,0,0,0-.43-.2h-1.552a.749.749,0,0,1-.709-.933c.3-1.24-.059-1.747-.3-1.938a.63.63,0,0,0-.16-.1v.07a4.1,4.1,0,0,1-.273,1.994,3.567,3.567,0,0,1-1.859,1.4Zm-.994.547H302.19v-3.91h1.681Zm-1.181-.5h.681v-2.91h-.681Z"/></g></svg>