<svg xmlns="http://www.w3.org/2000/svg" xmlns:xlink="http://www.w3.org/1999/xlink" width="24" height="24" viewBox="0 0 24 24"><defs><style>.a{fill:#fff;stroke:#707070;opacity:0;}.b{fill:url(#a);}.c{stroke:none;}.d{fill:none;}</style><linearGradient id="a" x1="0.5" x2="0.5" y2="1" gradientUnits="objectBoundingBox"><stop offset="0" stop-color="#dd1818"/><stop offset="1" stop-color="#870000"/></linearGradient></defs><g transform="translate(-764 -2799)"><g class="a" transform="translate(764 2799)"><rect class="c" width="24" height="24"/><rect class="d" x="0.5" y="0.5" width="23" height="23"/></g><g transform="translate(765.581 2797.881)"><g transform="translate(0 4.003)"><path class="b" d="M18.82,38.385a2.6,2.6,0,1,0-3.774,0,3.933,3.933,0,0,0-1.371,1.264,3.933,3.933,0,0,0-1.368-1.264,2.6,2.6,0,1,0-3.774,0,3.933,3.933,0,0,0-1.371,1.264A3.933,3.933,0,0,0,5.8,38.385a2.6,2.6,0,1,0-3.774,0A3.91,3.91,0,0,0,0,41.8a.651.651,0,0,0,.651.651H20.187a.651.651,0,0,0,.651-.651A3.91,3.91,0,0,0,18.82,38.385Zm-3.191-1.791a1.3,1.3,0,1,1,1.3,1.3A1.3,1.3,0,0,1,15.629,36.595Zm-6.512,0a1.3,1.3,0,1,1,1.3,1.3A1.3,1.3,0,0,1,9.117,36.595Zm-6.512,0a1.3,1.3,0,1,1,1.3,1.3A1.3,1.3,0,0,1,2.6,36.595Zm-1.22,4.558a2.6,2.6,0,0,1,5.045,0Zm6.512,0a2.6,2.6,0,0,1,5.045,0Zm6.512,0a2.6,2.6,0,0,1,5.045,0Z" transform="translate(0 -24.223)"/><path class="b" d="M12.019,23.105a.651.651,0,0,0,.856-.341,5.842,5.842,0,0,1,1.257-1.846.651.651,0,1,0-.918-.925,7.137,7.137,0,0,0-1.536,2.255A.651.651,0,0,0,12.019,23.105Z" transform="translate(-7.84 -14.66)"/><path class="b" d="M45.534,22.765a.651.651,0,1,0,1.2-.515,7.137,7.137,0,0,0-1.536-2.255.651.651,0,0,0-.918.925A5.842,5.842,0,0,1,45.534,22.765Z" transform="translate(-29.731 -14.66)"/><path class="b" d="M25.1,9.192a.648.648,0,0,0,.316,0c.127-.032,3.1-.8,3.1-3.236A1.954,1.954,0,0,0,25.256,4.5,1.954,1.954,0,0,0,22,5.956C22,8.39,24.971,9.161,25.1,9.192ZM23.954,5.3a.651.651,0,0,1,.651.651.651.651,0,1,0,1.3,0,.651.651,0,0,1,1.3,0c0,1.184-1.461,1.764-1.954,1.925C24.764,7.718,23.3,7.14,23.3,5.956A.651.651,0,0,1,23.954,5.3Z" transform="translate(-14.837 -4.003)"/></g></g></g></svg>