<svg xmlns="http://www.w3.org/2000/svg" xmlns:xlink="http://www.w3.org/1999/xlink" width="19.433" height="19.435" viewBox="0 0 19.433 19.435"><defs><style>.a{fill:url(#a);}.b{clip-path:url(#c);}.c{clip-path:url(#ml);}</style><linearGradient id="a" x1="0.5" x2="0.5" y2="1" gradientUnits="objectBoundingBox"><stop offset="0" stop-color="#dd1818"/><stop offset="1" stop-color="#870000"/></linearGradient><clipPath id="c"><path class="a" d="M265.436,410.8l-2.271-.267a6.985,6.985,0,0,0-.573-1.382l1.417-1.8a.232.232,0,0,0-.018-.306l-2.1-2.1a.23.23,0,0,0-.306-.018l-1.8,1.417a7.014,7.014,0,0,0-1.382-.574l-.266-2.27a.232.232,0,0,0-.229-.2h-2.975a.231.231,0,0,0-.229.2l-.267,2.271a6.962,6.962,0,0,0-1.382.574l-1.8-1.417a.23.23,0,0,0-.306.018l-2.1,2.1a.23.23,0,0,0-.018.306l1.417,1.8a6.981,6.981,0,0,0-.573,1.382l-2.274.266a.232.232,0,0,0-.2.229V414a.23.23,0,0,0,.2.229l2.271.267a6.984,6.984,0,0,0,.573,1.382l-1.417,1.8a.23.23,0,0,0,.018.306l2.1,2.1a.23.23,0,0,0,.306.018l1.8-1.417a6.963,6.963,0,0,0,1.382.574l.267,2.271a.23.23,0,0,0,.229.2H257.9a.232.232,0,0,0,.229-.2l.267-2.271a6.988,6.988,0,0,0,1.382-.574l1.8,1.417a.231.231,0,0,0,.306-.018l2.1-2.1a.231.231,0,0,0,.018-.306l-1.417-1.8a6.983,6.983,0,0,0,.573-1.382l2.271-.267a.231.231,0,0,0,.2-.229v-2.973A.232.232,0,0,0,265.436,410.8Zm-.257,3-2.22.261a.231.231,0,0,0-.2.169,6.508,6.508,0,0,1-.647,1.559.228.228,0,0,0,.019.258l1.386,1.756-1.811,1.817-1.755-1.386a.23.23,0,0,0-.258-.019,6.542,6.542,0,0,1-1.559.647.23.23,0,0,0-.169.2l-.261,2.22h-2.566l-.261-2.22a.232.232,0,0,0-.169-.2,6.508,6.508,0,0,1-1.559-.647.23.23,0,0,0-.258.019l-1.757,1.386L249.32,417.8l1.386-1.756a.232.232,0,0,0,.019-.258,6.468,6.468,0,0,1-.647-1.559.233.233,0,0,0-.2-.169l-2.22-.261v-2.566l2.22-.261a.232.232,0,0,0,.2-.169,6.491,6.491,0,0,1,.647-1.56.233.233,0,0,0-.019-.258l-1.386-1.755,1.814-1.814,1.756,1.38a.23.23,0,0,0,.258.019,6.549,6.549,0,0,1,1.559-.647.232.232,0,0,0,.169-.2l.261-2.22H257.7l.261,2.22a.23.23,0,0,0,.169.2,6.584,6.584,0,0,1,1.559.647.23.23,0,0,0,.258-.019l1.756-1.386,1.814,1.814-1.386,1.755a.23.23,0,0,0-.019.258,6.575,6.575,0,0,1,.647,1.56.228.228,0,0,0,.2.169l2.22.261Z"/></clipPath><clipPath id="ml"><path class="a" d="M256.586,408.683a.238.238,0,0,0-.332,0l-3.4,3.524a.229.229,0,0,0,0,.325.226.226,0,0,0,.163.066h1.57v3.13a.23.23,0,0,0,.23.23h3.2a.23.23,0,0,0,.23-.23h0V412.6h1.57a.231.231,0,0,0,.166-.391Zm1.436,3.453a.23.23,0,0,0-.23.23h0v3.13h-2.745v-3.13a.23.23,0,0,0-.23-.23h-1.256l2.859-2.962,2.859,2.962Z"/></clipPath></defs><g transform="translate(-246.701 -402.796)"><g class="b"><rect class="a" width="18.522" height="0.048" transform="translate(247.158 403.248)"/><path class="a" d="M265.68,403.8H246.658v-1l.5-.048H266.18v1Z"/><rect class="a" width="18.522" height="0.219" transform="translate(247.158 403.296)"/><rect class="a" width="19.522" height="1.219" transform="translate(246.658 402.796)"/><rect class="a" width="18.522" height="0.219" transform="translate(247.158 403.515)"/><rect class="a" width="19.522" height="1.219" transform="translate(246.658 403.015)"/><rect class="a" width="18.522" height="0.219" transform="translate(247.158 403.735)"/><rect class="a" width="19.522" height="1.22" transform="translate(246.658 403.235)"/><rect class="a" width="18.522" height="0.219" transform="translate(247.158 403.954)"/><rect class="a" width="19.522" height="1.219" transform="translate(246.658 403.454)"/><rect class="a" width="18.522" height="0.219" transform="translate(247.158 404.174)"/><rect class="a" width="19.522" height="1.219" transform="translate(246.658 403.674)"/><rect class="a" width="18.522" height="0.219" transform="translate(247.158 404.393)"/><rect class="a" width="19.522" height="1.22" transform="translate(246.658 403.893)"/><rect class="a" width="18.522" height="0.219" transform="translate(247.158 404.613)"/><rect class="a" width="19.522" height="1.219" transform="translate(246.658 404.114)"/><rect class="a" width="18.522" height="0.219" transform="translate(247.158 404.832)"/><rect class="a" width="19.522" height="1.219" transform="translate(246.658 404.332)"/><rect class="a" width="18.522" height="0.219" transform="translate(247.158 405.052)"/><rect class="a" width="19.522" height="1.219" transform="translate(246.658 404.552)"/><rect class="a" width="18.522" height="0.219" transform="translate(247.158 405.271)"/><rect class="a" width="19.522" height="1.22" transform="translate(246.658 404.771)"/><rect class="a" width="18.522" height="0.219" transform="translate(247.158 405.491)"/><rect class="a" width="19.522" height="1.219" transform="translate(246.658 404.992)"/><rect class="a" width="18.522" height="0.219" transform="translate(247.158 405.71)"/><rect class="a" width="19.522" height="1.219" transform="translate(246.658 405.21)"/><rect class="a" width="18.522" height="0.219" transform="translate(247.158 405.93)"/><rect class="a" width="19.522" height="1.219" transform="translate(246.658 405.43)"/><rect class="a" width="18.522" height="0.219" transform="translate(247.158 406.149)"/><rect class="a" width="19.522" height="1.22" transform="translate(246.658 405.649)"/><rect class="a" width="18.522" height="0.219" transform="translate(247.158 406.369)"/><rect class="a" width="19.522" height="1.219" transform="translate(246.658 405.869)"/><rect class="a" width="18.522" height="0.219" transform="translate(247.158 406.588)"/><rect class="a" width="19.522" height="1.219" transform="translate(246.658 406.088)"/><rect class="a" width="18.522" height="0.219" transform="translate(247.158 406.807)"/><rect class="a" width="19.522" height="1.219" transform="translate(246.658 406.307)"/><rect class="a" width="18.522" height="0.219" transform="translate(247.158 407.027)"/><rect class="a" width="19.522" height="1.22" transform="translate(246.658 406.527)"/><rect class="a" width="18.522" height="0.219" transform="translate(247.158 407.246)"/><rect class="a" width="19.522" height="1.219" transform="translate(246.658 406.746)"/><rect class="a" width="18.522" height="0.219" transform="translate(247.158 407.466)"/><rect class="a" width="19.522" height="1.219" transform="translate(246.658 406.966)"/><rect class="a" width="18.522" height="0.219" transform="translate(247.158 407.685)"/><rect class="a" width="19.522" height="1.22" transform="translate(246.658 407.185)"/><rect class="a" width="18.522" height="0.219" transform="translate(247.158 407.905)"/><rect class="a" width="19.522" height="1.219" transform="translate(246.658 407.406)"/><rect class="a" width="18.522" height="0.219" transform="translate(247.158 408.124)"/><rect class="a" width="19.522" height="1.219" transform="translate(246.658 407.624)"/><rect class="a" width="18.522" height="0.219" transform="translate(247.158 408.344)"/><rect class="a" width="19.522" height="1.219" transform="translate(246.658 407.844)"/><rect class="a" width="18.522" height="0.219" transform="translate(247.158 408.563)"/><rect class="a" width="19.522" height="1.22" transform="translate(246.658 408.063)"/><rect class="a" width="18.522" height="0.219" transform="translate(247.158 408.783)"/><rect class="a" width="19.522" height="1.219" transform="translate(246.658 408.284)"/><rect class="a" width="18.522" height="0.219" transform="translate(247.158 409.002)"/><rect class="a" width="19.522" height="1.219" transform="translate(246.658 408.502)"/><rect class="a" width="18.522" height="0.219" transform="translate(247.158 409.222)"/><rect class="a" width="19.522" height="1.219" transform="translate(246.658 408.722)"/><rect class="a" width="18.522" height="0.219" transform="translate(247.158 409.441)"/><rect class="a" width="19.522" height="1.22" transform="translate(246.658 408.941)"/><rect class="a" width="18.522" height="0.219" transform="translate(247.158 409.66)"/><rect class="a" width="19.522" height="1.219" transform="translate(246.658 409.16)"/><rect class="a" width="18.522" height="0.219" transform="translate(247.158 409.88)"/><rect class="a" width="19.522" height="1.219" transform="translate(246.658 409.38)"/><rect class="a" width="18.522" height="0.219" transform="translate(247.158 410.099)"/><rect class="a" width="19.522" height="1.22" transform="translate(246.658 409.599)"/><rect class="a" width="18.522" height="0.219" transform="translate(247.158 410.319)"/><rect class="a" width="19.522" height="1.22" transform="translate(246.658 409.819)"/><rect class="a" width="18.522" height="0.219" transform="translate(247.158 410.538)"/><rect class="a" width="19.522" height="1.219" transform="translate(246.658 410.038)"/><rect class="a" width="18.522" height="0.219" transform="translate(247.158 410.758)"/><rect class="a" width="19.522" height="1.219" transform="translate(246.658 410.258)"/><rect class="a" width="18.522" height="0.219" transform="translate(247.158 410.977)"/><rect class="a" width="19.522" height="1.22" transform="translate(246.658 410.477)"/><rect class="a" width="18.522" height="0.219" transform="translate(247.158 411.197)"/><rect class="a" width="19.522" height="1.219" transform="translate(246.658 410.698)"/><rect class="a" width="18.522" height="0.219" transform="translate(247.158 411.416)"/><rect class="a" width="19.522" height="1.219" transform="translate(246.658 410.916)"/><rect class="a" width="18.522" height="0.219" transform="translate(247.158 411.636)"/><rect class="a" width="19.522" height="1.219" transform="translate(246.658 411.136)"/><rect class="a" width="18.522" height="0.219" transform="translate(247.158 411.855)"/><rect class="a" width="19.522" height="1.22" transform="translate(246.658 411.355)"/><rect class="a" width="18.522" height="0.219" transform="translate(247.158 412.075)"/><rect class="a" width="19.522" height="1.219" transform="translate(246.658 411.576)"/><rect class="a" width="18.522" height="0.219" transform="translate(247.158 412.294)"/><rect class="a" width="19.522" height="1.219" transform="translate(246.658 411.794)"/><rect class="a" width="18.522" height="0.219" transform="translate(247.158 412.514)"/><rect class="a" width="19.522" height="1.219" transform="translate(246.658 412.014)"/><rect class="a" width="18.522" height="0.219" transform="translate(247.158 412.733)"/><rect class="a" width="19.522" height="1.22" transform="translate(246.658 412.233)"/><rect class="a" width="18.522" height="0.219" transform="translate(247.158 412.952)"/><rect class="a" width="19.522" height="1.219" transform="translate(246.658 412.452)"/><rect class="a" width="18.522" height="0.219" transform="translate(247.158 413.172)"/><rect class="a" width="19.522" height="1.219" transform="translate(246.658 412.672)"/><rect class="a" width="18.522" height="0.219" transform="translate(247.158 413.391)"/><rect class="a" width="19.522" height="1.22" transform="translate(246.658 412.891)"/><rect class="a" width="18.522" height="0.219" transform="translate(247.158 413.611)"/><rect class="a" width="19.522" height="1.219" transform="translate(246.658 413.112)"/><rect class="a" width="18.522" height="0.219" transform="translate(247.158 413.83)"/><rect class="a" width="19.522" height="1.219" transform="translate(246.658 413.33)"/><rect class="a" width="18.522" height="0.219" transform="translate(247.158 414.05)"/><rect class="a" width="19.522" height="1.219" transform="translate(246.658 413.55)"/><rect class="a" width="18.522" height="0.219" transform="translate(247.158 414.269)"/><rect class="a" width="19.522" height="1.22" transform="translate(246.658 413.769)"/><rect class="a" width="18.522" height="0.219" transform="translate(247.158 414.489)"/><rect class="a" width="19.522" height="1.219" transform="translate(246.658 413.99)"/><rect class="a" width="18.522" height="0.219" transform="translate(247.158 414.708)"/><rect class="a" width="19.522" height="1.219" transform="translate(246.658 414.208)"/><rect class="a" width="18.522" height="0.219" transform="translate(247.158 414.928)"/><rect class="a" width="19.522" height="1.219" transform="translate(246.658 414.428)"/><rect class="a" width="18.522" height="0.219" transform="translate(247.158 415.147)"/><rect class="a" width="19.522" height="1.22" transform="translate(246.658 414.647)"/><rect class="a" width="18.522" height="0.219" transform="translate(247.158 415.367)"/><rect class="a" width="19.522" height="1.219" transform="translate(246.658 414.867)"/><rect class="a" width="18.522" height="0.219" transform="translate(247.158 415.586)"/><rect class="a" width="19.522" height="1.219" transform="translate(246.658 415.086)"/><rect class="a" width="18.522" height="0.219" transform="translate(247.158 415.805)"/><rect class="a" width="19.522" height="1.219" transform="translate(246.658 415.305)"/><rect class="a" width="18.522" height="0.219" transform="translate(247.158 416.025)"/><rect class="a" width="19.522" height="1.22" transform="translate(246.658 415.525)"/><rect class="a" width="18.522" height="0.219" transform="translate(247.158 416.244)"/><rect class="a" width="19.522" height="1.219" transform="translate(246.658 415.744)"/><rect class="a" width="18.522" height="0.219" transform="translate(247.158 416.464)"/><rect class="a" width="19.522" height="1.219" transform="translate(246.658 415.964)"/><rect class="a" width="18.522" height="0.219" transform="translate(247.158 416.683)"/><rect class="a" width="19.522" height="1.22" transform="translate(246.658 416.183)"/><rect class="a" width="18.522" height="0.219" transform="translate(247.158 416.903)"/><rect class="a" width="19.522" height="1.219" transform="translate(246.658 416.404)"/><rect class="a" width="18.522" height="0.219" transform="translate(247.158 417.122)"/><rect class="a" width="19.522" height="1.219" transform="translate(246.658 416.622)"/><rect class="a" width="18.522" height="0.219" transform="translate(247.158 417.342)"/><rect class="a" width="19.522" height="1.219" transform="translate(246.658 416.842)"/><rect class="a" width="18.522" height="0.219" transform="translate(247.158 417.561)"/><rect class="a" width="19.522" height="1.22" transform="translate(246.658 417.061)"/><rect class="a" width="18.522" height="0.219" transform="translate(247.158 417.781)"/><rect class="a" width="19.522" height="1.219" transform="translate(246.658 417.282)"/><rect class="a" width="18.522" height="0.219" transform="translate(247.158 418)"/><rect class="a" width="19.522" height="1.219" transform="translate(246.658 417.5)"/><rect class="a" width="18.522" height="0.219" transform="translate(247.158 418.22)"/><rect class="a" width="19.522" height="1.219" transform="translate(246.658 417.72)"/><rect class="a" width="18.522" height="0.219" transform="translate(247.158 418.439)"/><rect class="a" width="19.522" height="1.22" transform="translate(246.658 417.939)"/><rect class="a" width="18.522" height="0.219" transform="translate(247.158 418.658)"/><rect class="a" width="19.522" height="1.219" transform="translate(246.658 418.159)"/><rect class="a" width="18.522" height="0.219" transform="translate(247.158 418.878)"/><rect class="a" width="19.522" height="1.219" transform="translate(246.658 418.378)"/><rect class="a" width="18.522" height="0.219" transform="translate(247.158 419.097)"/><rect class="a" width="19.522" height="1.219" transform="translate(246.658 418.597)"/><rect class="a" width="18.522" height="0.219" transform="translate(247.158 419.317)"/><rect class="a" width="19.522" height="1.22" transform="translate(246.658 418.817)"/><rect class="a" width="18.522" height="0.219" transform="translate(247.158 419.536)"/><rect class="a" width="19.522" height="1.219" transform="translate(246.658 419.036)"/><rect class="a" width="18.522" height="0.219" transform="translate(247.158 419.756)"/><rect class="a" width="19.522" height="1.219" transform="translate(246.658 419.256)"/><rect class="a" width="18.522" height="0.219" transform="translate(247.158 419.975)"/><rect class="a" width="19.522" height="1.22" transform="translate(246.658 419.475)"/><rect class="a" width="18.522" height="0.219" transform="translate(247.158 420.195)"/><rect class="a" width="19.522" height="1.219" transform="translate(246.658 419.696)"/><rect class="a" width="18.522" height="0.219" transform="translate(247.158 420.414)"/><rect class="a" width="19.522" height="1.219" transform="translate(246.658 419.914)"/><rect class="a" width="18.522" height="0.219" transform="translate(247.158 420.634)"/><rect class="a" width="19.522" height="1.219" transform="translate(246.658 420.134)"/><rect class="a" width="18.522" height="0.219" transform="translate(247.158 420.853)"/><rect class="a" width="19.522" height="1.22" transform="translate(246.658 420.353)"/><rect class="a" width="18.522" height="0.219" transform="translate(247.158 421.073)"/><rect class="a" width="19.522" height="1.219" transform="translate(246.658 420.574)"/><rect class="a" width="18.522" height="0.219" transform="translate(247.158 421.292)"/><rect class="a" width="19.522" height="1.219" transform="translate(246.658 420.792)"/><rect class="a" width="18.522" height="0.219" transform="translate(247.158 421.512)"/><rect class="a" width="19.522" height="1.219" transform="translate(246.658 421.012)"/><rect class="a" width="18.522" height="0.047" transform="translate(247.158 421.731)"/><path class="a" d="M265.68,422.279H246.658v-1l.5-.048H266.18v1Z"/><rect class="a" width="19.433" height="0.5" transform="translate(246.701 402.796)"/><rect class="a" width="20.433" height="1.5" transform="translate(246.201 402.296)"/><rect class="a" width="19.433" height="0.219" transform="translate(246.701 403.296)"/><rect class="a" width="20.433" height="1.219" transform="translate(246.201 402.796)"/><rect class="a" width="19.433" height="0.219" transform="translate(246.701 403.515)"/><rect class="a" width="20.433" height="1.219" transform="translate(246.201 403.015)"/><rect class="a" width="19.433" height="0.219" transform="translate(246.701 403.735)"/><rect class="a" width="20.433" height="1.22" transform="translate(246.201 403.235)"/><rect class="a" width="19.433" height="0.219" transform="translate(246.701 403.954)"/><rect class="a" width="20.433" height="1.219" transform="translate(246.201 403.454)"/><rect class="a" width="19.433" height="0.219" transform="translate(246.701 404.174)"/><rect class="a" width="20.433" height="1.219" transform="translate(246.201 403.674)"/><rect class="a" width="19.433" height="0.219" transform="translate(246.701 404.393)"/><rect class="a" width="20.433" height="1.22" transform="translate(246.201 403.893)"/><rect class="a" width="19.433" height="0.219" transform="translate(246.701 404.613)"/><rect class="a" width="20.433" height="1.219" transform="translate(246.201 404.114)"/><rect class="a" width="19.433" height="0.219" transform="translate(246.701 404.832)"/><rect class="a" width="20.433" height="1.219" transform="translate(246.201 404.332)"/><rect class="a" width="19.433" height="0.219" transform="translate(246.701 405.052)"/><rect class="a" width="20.433" height="1.219" transform="translate(246.201 404.552)"/><rect class="a" width="19.433" height="0.219" transform="translate(246.701 405.271)"/><rect class="a" width="20.433" height="1.22" transform="translate(246.201 404.771)"/><rect class="a" width="19.433" height="0.219" transform="translate(246.701 405.491)"/><rect class="a" width="20.433" height="1.219" transform="translate(246.201 404.992)"/><rect class="a" width="19.433" height="0.219" transform="translate(246.701 405.71)"/><rect class="a" width="20.433" height="1.219" transform="translate(246.201 405.21)"/><rect class="a" width="19.433" height="0.219" transform="translate(246.701 405.93)"/><rect class="a" width="20.433" height="1.219" transform="translate(246.201 405.43)"/><rect class="a" width="19.433" height="0.219" transform="translate(246.701 406.149)"/><rect class="a" width="20.433" height="1.22" transform="translate(246.201 405.649)"/><rect class="a" width="19.433" height="0.219" transform="translate(246.701 406.369)"/><rect class="a" width="20.433" height="1.219" transform="translate(246.201 405.869)"/><rect class="a" width="19.433" height="0.219" transform="translate(246.701 406.588)"/><rect class="a" width="20.433" height="1.219" transform="translate(246.201 406.088)"/><rect class="a" width="19.433" height="0.219" transform="translate(246.701 406.807)"/><rect class="a" width="20.433" height="1.219" transform="translate(246.201 406.307)"/><rect class="a" width="19.433" height="0.219" transform="translate(246.701 407.027)"/><rect class="a" width="20.433" height="1.22" transform="translate(246.201 406.527)"/><rect class="a" width="19.433" height="0.219" transform="translate(246.701 407.246)"/><rect class="a" width="20.433" height="1.219" transform="translate(246.201 406.746)"/><rect class="a" width="19.433" height="0.219" transform="translate(246.701 407.466)"/><rect class="a" width="20.433" height="1.219" transform="translate(246.201 406.966)"/><rect class="a" width="19.433" height="0.219" transform="translate(246.701 407.685)"/><rect class="a" width="20.433" height="1.22" transform="translate(246.201 407.185)"/><rect class="a" width="19.433" height="0.219" transform="translate(246.701 407.905)"/><rect class="a" width="20.433" height="1.219" transform="translate(246.201 407.406)"/><rect class="a" width="19.433" height="0.219" transform="translate(246.701 408.124)"/><rect class="a" width="20.433" height="1.219" transform="translate(246.201 407.624)"/><rect class="a" width="19.433" height="0.219" transform="translate(246.701 408.344)"/><rect class="a" width="20.433" height="1.219" transform="translate(246.201 407.844)"/><rect class="a" width="19.433" height="0.219" transform="translate(246.701 408.563)"/><rect class="a" width="20.433" height="1.22" transform="translate(246.201 408.063)"/><rect class="a" width="19.433" height="0.219" transform="translate(246.701 408.783)"/><rect class="a" width="20.433" height="1.219" transform="translate(246.201 408.284)"/><rect class="a" width="19.433" height="0.219" transform="translate(246.701 409.002)"/><rect class="a" width="20.433" height="1.219" transform="translate(246.201 408.502)"/><rect class="a" width="19.433" height="0.219" transform="translate(246.701 409.222)"/><rect class="a" width="20.433" height="1.219" transform="translate(246.201 408.722)"/><rect class="a" width="19.433" height="0.219" transform="translate(246.701 409.441)"/><rect class="a" width="20.433" height="1.22" transform="translate(246.201 408.941)"/><rect class="a" width="19.433" height="0.219" transform="translate(246.701 409.66)"/><rect class="a" width="20.433" height="1.219" transform="translate(246.201 409.16)"/><rect class="a" width="19.433" height="0.219" transform="translate(246.701 409.88)"/><rect class="a" width="20.433" height="1.219" transform="translate(246.201 409.38)"/><rect class="a" width="19.433" height="0.219" transform="translate(246.701 410.099)"/><rect class="a" width="20.433" height="1.22" transform="translate(246.201 409.599)"/><rect class="a" width="19.433" height="0.219" transform="translate(246.701 410.319)"/><rect class="a" width="20.433" height="1.22" transform="translate(246.201 409.819)"/><rect class="a" width="19.433" height="0.219" transform="translate(246.701 410.538)"/><rect class="a" width="20.433" height="1.219" transform="translate(246.201 410.038)"/><rect class="a" width="19.433" height="0.219" transform="translate(246.701 410.758)"/><rect class="a" width="20.433" height="1.219" transform="translate(246.201 410.258)"/><rect class="a" width="19.433" height="0.219" transform="translate(246.701 410.977)"/><rect class="a" width="20.433" height="1.22" transform="translate(246.201 410.477)"/><rect class="a" width="19.433" height="0.219" transform="translate(246.701 411.197)"/><rect class="a" width="20.433" height="1.219" transform="translate(246.201 410.698)"/><rect class="a" width="19.433" height="0.219" transform="translate(246.701 411.416)"/><rect class="a" width="20.433" height="1.219" transform="translate(246.201 410.916)"/><rect class="a" width="19.433" height="0.219" transform="translate(246.701 411.636)"/><rect class="a" width="20.433" height="1.219" transform="translate(246.201 411.136)"/><rect class="a" width="19.433" height="0.219" transform="translate(246.701 411.855)"/><rect class="a" width="20.433" height="1.22" transform="translate(246.201 411.355)"/><rect class="a" width="19.433" height="0.219" transform="translate(246.701 412.075)"/><rect class="a" width="20.433" height="1.219" transform="translate(246.201 411.576)"/><rect class="a" width="19.433" height="0.219" transform="translate(246.701 412.294)"/><rect class="a" width="20.433" height="1.219" transform="translate(246.201 411.794)"/><rect class="a" width="19.433" height="0.219" transform="translate(246.701 412.514)"/><rect class="a" width="20.433" height="1.219" transform="translate(246.201 412.014)"/><rect class="a" width="19.433" height="0.219" transform="translate(246.701 412.733)"/><rect class="a" width="20.433" height="1.22" transform="translate(246.201 412.233)"/><rect class="a" width="19.433" height="0.219" transform="translate(246.701 412.952)"/><rect class="a" width="20.433" height="1.219" transform="translate(246.201 412.452)"/><rect class="a" width="19.433" height="0.219" transform="translate(246.701 413.172)"/><rect class="a" width="20.433" height="1.219" transform="translate(246.201 412.672)"/><rect class="a" width="19.433" height="0.219" transform="translate(246.701 413.391)"/><rect class="a" width="20.433" height="1.22" transform="translate(246.201 412.891)"/><rect class="a" width="19.433" height="0.219" transform="translate(246.701 413.611)"/><rect class="a" width="20.433" height="1.219" transform="translate(246.201 413.112)"/><rect class="a" width="19.433" height="0.219" transform="translate(246.701 413.83)"/><rect class="a" width="20.433" height="1.219" transform="translate(246.201 413.33)"/><rect class="a" width="19.433" height="0.219" transform="translate(246.701 414.05)"/><rect class="a" width="20.433" height="1.219" transform="translate(246.201 413.55)"/><rect class="a" width="19.433" height="0.219" transform="translate(246.701 414.269)"/><rect class="a" width="20.433" height="1.22" transform="translate(246.201 413.769)"/><rect class="a" width="19.433" height="0.219" transform="translate(246.701 414.489)"/><rect class="a" width="20.433" height="1.219" transform="translate(246.201 413.99)"/><rect class="a" width="19.433" height="0.219" transform="translate(246.701 414.708)"/><rect class="a" width="20.433" height="1.219" transform="translate(246.201 414.208)"/><rect class="a" width="19.433" height="0.219" transform="translate(246.701 414.928)"/><rect class="a" width="20.433" height="1.219" transform="translate(246.201 414.428)"/><rect class="a" width="19.433" height="0.219" transform="translate(246.701 415.147)"/><rect class="a" width="20.433" height="1.22" transform="translate(246.201 414.647)"/><rect class="a" width="19.433" height="0.219" transform="translate(246.701 415.367)"/><rect class="a" width="20.433" height="1.219" transform="translate(246.201 414.867)"/><rect class="a" width="19.433" height="0.219" transform="translate(246.701 415.586)"/><rect class="a" width="20.433" height="1.219" transform="translate(246.201 415.086)"/><rect class="a" width="19.433" height="0.219" transform="translate(246.701 415.805)"/><rect class="a" width="20.433" height="1.219" transform="translate(246.201 415.305)"/><rect class="a" width="19.433" height="0.219" transform="translate(246.701 416.025)"/><rect class="a" width="20.433" height="1.22" transform="translate(246.201 415.525)"/><rect class="a" width="19.433" height="0.219" transform="translate(246.701 416.244)"/><rect class="a" width="20.433" height="1.219" transform="translate(246.201 415.744)"/><rect class="a" width="19.433" height="0.219" transform="translate(246.701 416.464)"/><rect class="a" width="20.433" height="1.219" transform="translate(246.201 415.964)"/><rect class="a" width="19.433" height="0.219" transform="translate(246.701 416.683)"/><rect class="a" width="20.433" height="1.22" transform="translate(246.201 416.183)"/><rect class="a" width="19.433" height="0.219" transform="translate(246.701 416.903)"/><rect class="a" width="20.433" height="1.219" transform="translate(246.201 416.404)"/><rect class="a" width="19.433" height="0.219" transform="translate(246.701 417.122)"/><rect class="a" width="20.433" height="1.219" transform="translate(246.201 416.622)"/><rect class="a" width="19.433" height="0.219" transform="translate(246.701 417.342)"/><rect class="a" width="20.433" height="1.219" transform="translate(246.201 416.842)"/><rect class="a" width="19.433" height="0.219" transform="translate(246.701 417.561)"/><rect class="a" width="20.433" height="1.22" transform="translate(246.201 417.061)"/><rect class="a" width="19.433" height="0.219" transform="translate(246.701 417.781)"/><rect class="a" width="20.433" height="1.219" transform="translate(246.201 417.282)"/><rect class="a" width="19.433" height="0.219" transform="translate(246.701 418)"/><rect class="a" width="20.433" height="1.219" transform="translate(246.201 417.5)"/><rect class="a" width="19.433" height="0.219" transform="translate(246.701 418.22)"/><rect class="a" width="20.433" height="1.219" transform="translate(246.201 417.72)"/><rect class="a" width="19.433" height="0.219" transform="translate(246.701 418.439)"/><rect class="a" width="20.433" height="1.22" transform="translate(246.201 417.939)"/><rect class="a" width="19.433" height="0.219" transform="translate(246.701 418.658)"/><rect class="a" width="20.433" height="1.219" transform="translate(246.201 418.159)"/><rect class="a" width="19.433" height="0.219" transform="translate(246.701 418.878)"/><rect class="a" width="20.433" height="1.219" transform="translate(246.201 418.378)"/><rect class="a" width="19.433" height="0.219" transform="translate(246.701 419.097)"/><rect class="a" width="20.433" height="1.219" transform="translate(246.201 418.597)"/><rect class="a" width="19.433" height="0.219" transform="translate(246.701 419.317)"/><rect class="a" width="20.433" height="1.22" transform="translate(246.201 418.817)"/><rect class="a" width="19.433" height="0.219" transform="translate(246.701 419.536)"/><rect class="a" width="20.433" height="1.219" transform="translate(246.201 419.036)"/><rect class="a" width="19.433" height="0.219" transform="translate(246.701 419.756)"/><rect class="a" width="20.433" height="1.219" transform="translate(246.201 419.256)"/><rect class="a" width="19.433" height="0.219" transform="translate(246.701 419.975)"/><rect class="a" width="20.433" height="1.22" transform="translate(246.201 419.475)"/><rect class="a" width="19.433" height="0.219" transform="translate(246.701 420.195)"/><rect class="a" width="20.433" height="1.219" transform="translate(246.201 419.696)"/><rect class="a" width="19.433" height="0.219" transform="translate(246.701 420.414)"/><rect class="a" width="20.433" height="1.219" transform="translate(246.201 419.914)"/><rect class="a" width="19.433" height="0.219" transform="translate(246.701 420.634)"/><rect class="a" width="20.433" height="1.219" transform="translate(246.201 420.134)"/><rect class="a" width="19.433" height="0.219" transform="translate(246.701 420.853)"/><rect class="a" width="20.433" height="1.22" transform="translate(246.201 420.353)"/><rect class="a" width="19.433" height="0.219" transform="translate(246.701 421.073)"/><rect class="a" width="20.433" height="1.219" transform="translate(246.201 420.574)"/><rect class="a" width="19.433" height="0.219" transform="translate(246.701 421.292)"/><rect class="a" width="20.433" height="1.219" transform="translate(246.201 420.792)"/><rect class="a" width="19.433" height="0.219" transform="translate(246.701 421.512)"/><rect class="a" width="20.433" height="1.219" transform="translate(246.201 421.012)"/><rect class="a" width="19.433" height="0.5" transform="translate(246.701 421.731)"/><rect class="a" width="20.433" height="1.5" transform="translate(246.201 421.231)"/></g><path class="a" d="M258.148,421.779h-3.455l-.293-2.489a6.985,6.985,0,0,1-1.341-.556l-1.964,1.55-2.443-2.443,1.55-1.964a6.961,6.961,0,0,1-.557-1.342l-2.487-.292v-3.455l2.487-.293a7.026,7.026,0,0,1,.557-1.341l-1.55-1.963,2.442-2.442,1.964,1.543a7.12,7.12,0,0,1,1.341-.556l.293-2.488h3.453l.293,2.488a7.092,7.092,0,0,1,1.341.556l1.964-1.55,2.442,2.443-1.55,1.963a7.016,7.016,0,0,1,.557,1.343l2.488.292v3.458l-2.488.293a6.965,6.965,0,0,1-.556,1.34l1.549,1.964-2.439,2.447-1.963-1.551a7.062,7.062,0,0,1-1.341.556Zm-2.566-1h1.677l.209-1.78a.734.734,0,0,1,.533-.624,6.02,6.02,0,0,0,1.442-.6.728.728,0,0,1,.819.06l1.4,1.11,1.183-1.188-1.111-1.407a.734.734,0,0,1-.058-.819,6.032,6.032,0,0,0,.6-1.438.733.733,0,0,1,.632-.536l1.771-.208v-1.681l-1.779-.208a.732.732,0,0,1-.624-.536,6.008,6.008,0,0,0-.6-1.439.732.732,0,0,1,.058-.818l1.112-1.407-1.186-1.185-1.407,1.111a.725.725,0,0,1-.82.057,6.064,6.064,0,0,0-1.437-.6.736.736,0,0,1-.536-.635l-.208-1.768h-1.675l-.209,1.779a.733.733,0,0,1-.533.624,6.058,6.058,0,0,0-1.442.6.727.727,0,0,1-.817-.059l-1.406-1.106-1.186,1.186,1.11,1.406a.731.731,0,0,1,.061.817,6.012,6.012,0,0,0-.6,1.442.733.733,0,0,1-.631.535l-1.771.208v1.678l1.778.208a.733.733,0,0,1,.624.535,6.011,6.011,0,0,0,.6,1.44.724.724,0,0,1-.06.818l-1.11,1.407,1.185,1.186,1.408-1.112a.731.731,0,0,1,.816-.06,6.042,6.042,0,0,0,1.441.6.735.735,0,0,1,.536.634Zm-1.2-1.662v0Zm4.082-.01v0Zm1.179-.485h0Zm-9.35-2.585,0,0Zm12.255,0v0Zm-.024-.3v0Zm-12.7-1.176h0Zm13.2,0h0Zm-13.2-4.078h0Zm13.19-.006h0ZM252.9,406.381l0,0Zm7.036,0,0,0Zm-5.556-.47v0Zm4.078-.008v0Z"/><path class="a" d="M257.9,422.231H254.93a.734.734,0,0,1-.725-.632l-.23-1.961a7.543,7.543,0,0,1-.867-.36l-1.547,1.217a.726.726,0,0,1-.97-.057l-2.1-2.1a.729.729,0,0,1-.057-.97l1.217-1.545a7.533,7.533,0,0,1-.359-.867l-1.951-.23A.733.733,0,0,1,246.7,414v-2.976a.733.733,0,0,1,.632-.724l1.963-.229a7.42,7.42,0,0,1,.36-.868l-1.219-1.546a.733.733,0,0,1,.057-.968l2.1-2.1a.728.728,0,0,1,.969-.056l1.547,1.217a7.785,7.785,0,0,1,.866-.36l.23-1.951a.736.736,0,0,1,.726-.642h2.975a.734.734,0,0,1,.724.633l.23,1.959a7.45,7.45,0,0,1,.866.36l1.547-1.217a.729.729,0,0,1,.97.057l2.1,2.1a.733.733,0,0,1,.058.969l-1.218,1.546a7.592,7.592,0,0,1,.359.868l1.964.23a.735.735,0,0,1,.627.733V414a.733.733,0,0,1-.637.725l-1.956.23a7.355,7.355,0,0,1-.359.867l1.218,1.546a.729.729,0,0,1-.06.971l-2.1,2.1a.732.732,0,0,1-.969.056l-1.547-1.217a7.628,7.628,0,0,1-.866.36l-.23,1.952A.736.736,0,0,1,257.9,422.231Zm-2.736-1h2.5l.277-2.357.316-.093a6.5,6.5,0,0,0,1.283-.534l.29-.159,1.873,1.475,1.761-1.763-1.473-1.871.158-.29a6.472,6.472,0,0,0,.532-1.282l.093-.318,2.358-.277v-2.5l-2.356-.276-.094-.318a6.513,6.513,0,0,0-.531-1.284l-.158-.289,1.473-1.871-1.762-1.763-1.872,1.475-.29-.159a6.463,6.463,0,0,0-1.283-.534l-.316-.093-.277-2.356h-2.5l-.278,2.357-.316.093a6.521,6.521,0,0,0-1.283.534l-.29.159-1.872-1.475-1.761,1.763,1.472,1.871-.158.289a6.513,6.513,0,0,0-.531,1.284l-.094.318-2.36.276v2.5l2.358.277.093.318a6.467,6.467,0,0,0,.531,1.282l.159.29-1.473,1.871,1.761,1.763L253,418.088l.29.159a6.487,6.487,0,0,0,1.283.534l.317.093Zm-4.226-1.521,0,0Zm12.671-1.721h0Zm-14.392,0v0Zm14.413-.356,0,0Zm-14.438,0,0,0Zm15.937-6.6v0Z"/><g class="c"><rect class="a" width="8.073" height="0.161" transform="translate(252.383 408.454)"/><rect class="a" width="9.073" height="1.161" transform="translate(251.883 407.954)"/><rect class="a" width="8.073" height="0.087" transform="translate(252.383 408.615)"/><path class="a" d="M260.455,409.2h-8.573v-1l.5-.087h8.573v1Z"/><rect class="a" width="8.073" height="0.087" transform="translate(252.383 408.703)"/><path class="a" d="M260.455,409.29h-8.573v-1l.5-.087h8.573v1Z"/><rect class="a" width="8.073" height="0.087" transform="translate(252.383 408.79)"/><path class="a" d="M260.455,409.377h-8.573v-1l.5-.087h8.573v1Z"/><rect class="a" width="8.073" height="0.087" transform="translate(252.383 408.877)"/><path class="a" d="M260.455,409.464h-8.573v-1l.5-.087h8.573v1Z"/><rect class="a" width="8.073" height="0.087" transform="translate(252.383 408.965)"/><path class="a" d="M260.455,409.552h-8.573v-1l.5-.087h8.573v1Z"/><rect class="a" width="8.073" height="0.087" transform="translate(252.383 409.052)"/><path class="a" d="M260.455,409.639h-8.573v-1l.5-.087h8.573v1Z"/><rect class="a" width="8.073" height="0.087" transform="translate(252.383 409.14)"/><path class="a" d="M260.455,409.727h-8.573v-1l.5-.087h8.573v1Z"/><rect class="a" width="8.073" height="0.087" transform="translate(252.383 409.227)"/><path class="a" d="M260.455,409.814h-8.573v-1l.5-.087h8.573v1Z"/><rect class="a" width="8.073" height="0.087" transform="translate(252.383 409.314)"/><path class="a" d="M260.455,409.9h-8.573v-1l.5-.087h8.573v1Z"/><rect class="a" width="8.073" height="0.087" transform="translate(252.383 409.402)"/><path class="a" d="M260.455,409.99h-8.573v-1l.5-.088h8.573v1Z"/><rect class="a" width="8.073" height="0.087" transform="translate(252.383 409.489)"/><path class="a" d="M260.455,410.076h-8.573v-1l.5-.087h8.573v1Z"/><rect class="a" width="8.073" height="0.087" transform="translate(252.383 409.577)"/><path class="a" d="M260.455,410.164h-8.573v-1l.5-.087h8.573v1Z"/><rect class="a" width="8.073" height="0.087" transform="translate(252.383 409.664)"/><path class="a" d="M260.455,410.251h-8.573v-1l.5-.087h8.573v1Z"/><rect class="a" width="8.073" height="0.087" transform="translate(252.383 409.752)"/><path class="a" d="M260.455,410.339h-8.573v-1l.5-.087h8.573v1Z"/><rect class="a" width="8.073" height="0.087" transform="translate(252.383 409.839)"/><path class="a" d="M260.455,410.426h-8.573v-1l.5-.087h8.573v1Z"/><rect class="a" width="8.073" height="0.087" transform="translate(252.383 409.926)"/><path class="a" d="M260.455,410.513h-8.573v-1l.5-.087h8.573v1Z"/><rect class="a" width="8.073" height="0.087" transform="translate(252.383 410.014)"/><path class="a" d="M260.455,410.6h-8.573v-1l.5-.087h8.573v1Z"/><rect class="a" width="8.073" height="0.087" transform="translate(252.383 410.101)"/><path class="a" d="M260.455,410.688h-8.573v-1l.5-.087h8.573v1Z"/><rect class="a" width="8.073" height="0.087" transform="translate(252.383 410.189)"/><path class="a" d="M260.455,410.776h-8.573v-1l.5-.087h8.573v1Z"/><rect class="a" width="8.073" height="0.087" transform="translate(252.383 410.276)"/><path class="a" d="M260.455,410.864h-8.573v-1l.5-.088h8.573v1Z"/><rect class="a" width="8.073" height="0.087" transform="translate(252.383 410.363)"/><path class="a" d="M260.455,410.951h-8.573v-1l.5-.087h8.573v1Z"/><rect class="a" width="8.073" height="0.087" transform="translate(252.383 410.451)"/><path class="a" d="M260.455,411.038h-8.573v-1l.5-.087h8.573v1Z"/><rect class="a" width="8.073" height="0.087" transform="translate(252.383 410.538)"/><path class="a" d="M260.455,411.125h-8.573v-1l.5-.087h8.573v1Z"/><rect class="a" width="8.073" height="0.087" transform="translate(252.383 410.626)"/><path class="a" d="M260.455,411.213h-8.573v-1l.5-.087h8.573v1Z"/><rect class="a" width="8.073" height="0.087" transform="translate(252.383 410.713)"/><path class="a" d="M260.455,411.3h-8.573v-1l.5-.087h8.573v1Z"/><rect class="a" width="8.073" height="0.087" transform="translate(252.383 410.801)"/><path class="a" d="M260.455,411.388h-8.573v-1l.5-.087h8.573v1Z"/><rect class="a" width="8.073" height="0.087" transform="translate(252.383 410.888)"/><path class="a" d="M260.455,411.475h-8.573v-1l.5-.087h8.573v1Z"/><rect class="a" width="8.073" height="0.087" transform="translate(252.383 410.975)"/><path class="a" d="M260.455,411.562h-8.573v-1l.5-.087h8.573v1Z"/><rect class="a" width="8.073" height="0.087" transform="translate(252.383 411.063)"/><path class="a" d="M260.455,411.65h-8.573v-1l.5-.087h8.573v1Z"/><rect class="a" width="8.073" height="0.087" transform="translate(252.383 411.15)"/><path class="a" d="M260.455,411.738h-8.573v-1l.5-.088h8.573v1Z"/><rect class="a" width="8.073" height="0.087" transform="translate(252.383 411.238)"/><path class="a" d="M260.455,411.826h-8.573v-1l.5-.087h8.573v1Z"/><rect class="a" width="8.073" height="0.087" transform="translate(252.383 411.325)"/><path class="a" d="M260.455,411.912h-8.573v-1l.5-.087h8.573v1Z"/><rect class="a" width="8.073" height="0.087" transform="translate(252.383 411.412)"/><path class="a" d="M260.455,412h-8.573v-1l.5-.087h8.573v1Z"/><rect class="a" width="8.073" height="0.087" transform="translate(252.383 411.5)"/><path class="a" d="M260.455,412.087h-8.573v-1l.5-.087h8.573v1Z"/><rect class="a" width="8.073" height="0.087" transform="translate(252.383 411.587)"/><path class="a" d="M260.455,412.174h-8.573v-1l.5-.087h8.573v1Z"/><rect class="a" width="8.073" height="0.087" transform="translate(252.383 411.675)"/><path class="a" d="M260.455,412.262h-8.573v-1l.5-.087h8.573v1Z"/><rect class="a" width="8.073" height="0.087" transform="translate(252.383 411.762)"/><path class="a" d="M260.455,412.349h-8.573v-1l.5-.087h8.573v1Z"/><rect class="a" width="8.073" height="0.087" transform="translate(252.383 411.85)"/><path class="a" d="M260.455,412.437h-8.573v-1l.5-.087h8.573v1Z"/><rect class="a" width="8.073" height="0.087" transform="translate(252.383 411.937)"/><path class="a" d="M260.455,412.524h-8.573v-1l.5-.087h8.573v1Z"/><rect class="a" width="8.073" height="0.087" transform="translate(252.383 412.024)"/><path class="a" d="M260.455,412.612h-8.573v-1l.5-.088h8.573v1Z"/><rect class="a" width="8.073" height="0.087" transform="translate(252.383 412.112)"/><path class="a" d="M260.455,412.7h-8.573v-1l.5-.087h8.573v1Z"/><rect class="a" width="8.073" height="0.087" transform="translate(252.383 412.199)"/><path class="a" d="M260.455,412.786h-8.573v-1l.5-.087h8.573v1Z"/><rect class="a" width="8.073" height="0.087" transform="translate(252.383 412.287)"/><path class="a" d="M260.455,412.874h-8.573v-1l.5-.087h8.573v1Z"/><rect class="a" width="8.073" height="0.087" transform="translate(252.383 412.374)"/><path class="a" d="M260.455,412.961h-8.573v-1l.5-.087h8.573v1Z"/><rect class="a" width="8.073" height="0.087" transform="translate(252.383 412.461)"/><path class="a" d="M260.455,413.048h-8.573v-1l.5-.087h8.573v1Z"/><rect class="a" width="8.073" height="0.087" transform="translate(252.383 412.549)"/><path class="a" d="M260.455,413.136h-8.573v-1l.5-.087h8.573v1Z"/><rect class="a" width="8.073" height="0.087" transform="translate(252.383 412.636)"/><path class="a" d="M260.455,413.223h-8.573v-1l.5-.087h8.573v1Z"/><rect class="a" width="8.073" height="0.087" transform="translate(252.383 412.724)"/><path class="a" d="M260.455,413.311h-8.573v-1l.5-.087h8.573v1Z"/><rect class="a" width="8.073" height="0.087" transform="translate(252.383 412.811)"/><path class="a" d="M260.455,413.4h-8.573v-1l.5-.087h8.573v1Z"/><rect class="a" width="8.073" height="0.087" transform="translate(252.383 412.898)"/><path class="a" d="M260.455,413.485h-8.573v-1l.5-.087h8.573v1Z"/><rect class="a" width="8.073" height="0.087" transform="translate(252.383 412.986)"/><path class="a" d="M260.455,413.574h-8.573v-1l.5-.087h8.573v1Z"/><rect class="a" width="8.073" height="0.087" transform="translate(252.383 413.073)"/><path class="a" d="M260.455,413.66h-8.573v-1l.5-.087h8.573v1Z"/><rect class="a" width="8.073" height="0.087" transform="translate(252.383 413.161)"/><path class="a" d="M260.455,413.748h-8.573v-1l.5-.087h8.573v1Z"/><rect class="a" width="8.073" height="0.087" transform="translate(252.383 413.248)"/><path class="a" d="M260.455,413.835h-8.573v-1l.5-.087h8.573v1Z"/><rect class="a" width="8.073" height="0.087" transform="translate(252.383 413.336)"/><path class="a" d="M260.455,413.923h-8.573v-1l.5-.087h8.573v1Z"/><rect class="a" width="8.073" height="0.087" transform="translate(252.383 413.423)"/><path class="a" d="M260.455,414.01h-8.573v-1l.5-.087h8.573v1Z"/><rect class="a" width="8.073" height="0.087" transform="translate(252.383 413.51)"/><path class="a" d="M260.455,414.1h-8.573v-1l.5-.087h8.573v1Z"/><rect class="a" width="8.073" height="0.087" transform="translate(252.383 413.598)"/><path class="a" d="M260.455,414.185h-8.573v-1l.5-.087h8.573v1Z"/><rect class="a" width="8.073" height="0.087" transform="translate(252.383 413.685)"/><path class="a" d="M260.455,414.272h-8.573v-1l.5-.087h8.573v1Z"/><rect class="a" width="8.073" height="0.087" transform="translate(252.383 413.773)"/><path class="a" d="M260.455,414.36h-8.573v-1l.5-.087h8.573v1Z"/><rect class="a" width="8.073" height="0.087" transform="translate(252.383 413.86)"/><path class="a" d="M260.455,414.448h-8.573v-1l.5-.088h8.573v1Z"/><rect class="a" width="8.073" height="0.087" transform="translate(252.383 413.947)"/><path class="a" d="M260.455,414.534h-8.573v-1l.5-.087h8.573v1Z"/><rect class="a" width="8.073" height="0.087" transform="translate(252.383 414.035)"/><path class="a" d="M260.455,414.622h-8.573v-1l.5-.087h8.573v1Z"/><rect class="a" width="8.073" height="0.087" transform="translate(252.383 414.122)"/><path class="a" d="M260.455,414.709h-8.573v-1l.5-.087h8.573v1Z"/><rect class="a" width="8.073" height="0.087" transform="translate(252.383 414.21)"/><path class="a" d="M260.455,414.8h-8.573v-1l.5-.087h8.573v1Z"/><rect class="a" width="8.073" height="0.087" transform="translate(252.383 414.297)"/><path class="a" d="M260.455,414.884h-8.573v-1l.5-.087h8.573v1Z"/><rect class="a" width="8.073" height="0.087" transform="translate(252.383 414.385)"/><path class="a" d="M260.455,414.972h-8.573v-1l.5-.087h8.573v1Z"/><rect class="a" width="8.073" height="0.087" transform="translate(252.383 414.472)"/><path class="a" d="M260.455,415.059h-8.573v-1l.5-.087h8.573v1Z"/><rect class="a" width="8.073" height="0.087" transform="translate(252.383 414.559)"/><path class="a" d="M260.455,415.146h-8.573v-1l.5-.087h8.573v1Z"/><rect class="a" width="8.073" height="0.087" transform="translate(252.383 414.647)"/><path class="a" d="M260.455,415.234h-8.573v-1l.5-.087h8.573v1Z"/><rect class="a" width="8.073" height="0.087" transform="translate(252.383 414.734)"/><path class="a" d="M260.455,415.322h-8.573v-1l.5-.088h8.573v1Z"/><rect class="a" width="8.073" height="0.087" transform="translate(252.383 414.822)"/><path class="a" d="M260.455,415.409h-8.573v-1l.5-.087h8.573v1Z"/><rect class="a" width="8.073" height="0.087" transform="translate(252.383 414.909)"/><path class="a" d="M260.455,415.5h-8.573v-1l.5-.087h8.573v1Z"/><rect class="a" width="8.073" height="0.087" transform="translate(252.383 414.996)"/><path class="a" d="M260.455,415.583h-8.573v-1l.5-.087h8.573v1Z"/><rect class="a" width="8.073" height="0.087" transform="translate(252.383 415.084)"/><path class="a" d="M260.455,415.671h-8.573v-1l.5-.087h8.573v1Z"/><rect class="a" width="8.073" height="0.087" transform="translate(252.383 415.171)"/><path class="a" d="M260.455,415.758h-8.573v-1l.5-.087h8.573v1Z"/><rect class="a" width="8.073" height="0.087" transform="translate(252.383 415.259)"/><path class="a" d="M260.455,415.846h-8.573v-1l.5-.087h8.573v1Z"/><rect class="a" width="8.073" height="0.087" transform="translate(252.383 415.346)"/><path class="a" d="M260.455,415.933h-8.573v-1l.5-.087h8.573v1Z"/><rect class="a" width="8.073" height="0.087" transform="translate(252.383 415.434)"/><path class="a" d="M260.455,416.021h-8.573v-1l.5-.087h8.573v1Z"/><rect class="a" width="8.073" height="0.087" transform="translate(252.383 415.521)"/><path class="a" d="M260.455,416.108h-8.573v-1l.5-.087h8.573v1Z"/><rect class="a" width="8.073" height="0.087" transform="translate(252.383 415.608)"/><path class="a" d="M260.455,416.2h-8.573v-1l.5-.088h8.573v1Z"/><rect class="a" width="8.073" height="0.087" transform="translate(252.383 415.696)"/><path class="a" d="M260.455,416.284h-8.573v-1l.5-.087h8.573v1Z"/><rect class="a" width="8.073" height="0.087" transform="translate(252.383 415.783)"/><path class="a" d="M260.455,416.37h-8.573v-1l.5-.087h8.573v1Z"/><rect class="a" width="8.073" height="0.087" transform="translate(252.383 415.871)"/><path class="a" d="M260.455,416.458h-8.573v-1l.5-.087h8.573v1Z"/><rect class="a" width="8.073" height="0.038" transform="translate(252.383 415.958)"/><path class="a" d="M260.455,416.5h-8.573v-1l.5-.038h8.573v1Z"/><rect class="a" width="8.264" height="0.5" transform="translate(252.288 408.115)"/><rect class="a" width="9.264" height="1.5" transform="translate(251.788 407.616)"/><rect class="a" width="8.264" height="0.087" transform="translate(252.288 408.615)"/><path class="a" d="M260.552,409.2h-8.764v-1l.5-.087h8.764v1Z"/><rect class="a" width="8.264" height="0.087" transform="translate(252.288 408.703)"/><path class="a" d="M260.552,409.29h-8.764v-1l.5-.087h8.764v1Z"/><rect class="a" width="8.264" height="0.087" transform="translate(252.288 408.79)"/><path class="a" d="M260.552,409.377h-8.764v-1l.5-.087h8.764v1Z"/><rect class="a" width="8.264" height="0.087" transform="translate(252.288 408.877)"/><path class="a" d="M260.552,409.464h-8.764v-1l.5-.087h8.764v1Z"/><rect class="a" width="8.264" height="0.087" transform="translate(252.288 408.965)"/><path class="a" d="M260.552,409.552h-8.764v-1l.5-.087h8.764v1Z"/><rect class="a" width="8.264" height="0.087" transform="translate(252.288 409.052)"/><path class="a" d="M260.552,409.639h-8.764v-1l.5-.087h8.764v1Z"/><rect class="a" width="8.264" height="0.087" transform="translate(252.288 409.14)"/><path class="a" d="M260.552,409.727h-8.764v-1l.5-.087h8.764v1Z"/><rect class="a" width="8.264" height="0.087" transform="translate(252.288 409.227)"/><path class="a" d="M260.552,409.814h-8.764v-1l.5-.087h8.764v1Z"/><rect class="a" width="8.264" height="0.087" transform="translate(252.288 409.314)"/><path class="a" d="M260.552,409.9h-8.764v-1l.5-.087h8.764v1Z"/><rect class="a" width="8.264" height="0.087" transform="translate(252.288 409.402)"/><path class="a" d="M260.552,409.99h-8.764v-1l.5-.088h8.764v1Z"/><rect class="a" width="8.264" height="0.087" transform="translate(252.288 409.489)"/><path class="a" d="M260.552,410.076h-8.764v-1l.5-.087h8.764v1Z"/><rect class="a" width="8.264" height="0.087" transform="translate(252.288 409.577)"/><path class="a" d="M260.552,410.164h-8.764v-1l.5-.087h8.764v1Z"/><rect class="a" width="8.264" height="0.087" transform="translate(252.288 409.664)"/><path class="a" d="M260.552,410.251h-8.764v-1l.5-.087h8.764v1Z"/><rect class="a" width="8.264" height="0.087" transform="translate(252.288 409.752)"/><path class="a" d="M260.552,410.339h-8.764v-1l.5-.087h8.764v1Z"/><rect class="a" width="8.264" height="0.087" transform="translate(252.288 409.839)"/><path class="a" d="M260.552,410.426h-8.764v-1l.5-.087h8.764v1Z"/><rect class="a" width="8.264" height="0.087" transform="translate(252.288 409.926)"/><path class="a" d="M260.552,410.513h-8.764v-1l.5-.087h8.764v1Z"/><rect class="a" width="8.264" height="0.087" transform="translate(252.288 410.014)"/><path class="a" d="M260.552,410.6h-8.764v-1l.5-.087h8.764v1Z"/><rect class="a" width="8.264" height="0.087" transform="translate(252.288 410.101)"/><path class="a" d="M260.552,410.688h-8.764v-1l.5-.087h8.764v1Z"/><rect class="a" width="8.264" height="0.087" transform="translate(252.288 410.189)"/><path class="a" d="M260.552,410.776h-8.764v-1l.5-.087h8.764v1Z"/><rect class="a" width="8.264" height="0.087" transform="translate(252.288 410.276)"/><path class="a" d="M260.552,410.864h-8.764v-1l.5-.088h8.764v1Z"/><rect class="a" width="8.264" height="0.087" transform="translate(252.288 410.363)"/><path class="a" d="M260.552,410.951h-8.764v-1l.5-.087h8.764v1Z"/><rect class="a" width="8.264" height="0.087" transform="translate(252.288 410.451)"/><path class="a" d="M260.552,411.038h-8.764v-1l.5-.087h8.764v1Z"/><rect class="a" width="8.264" height="0.087" transform="translate(252.288 410.538)"/><path class="a" d="M260.552,411.125h-8.764v-1l.5-.087h8.764v1Z"/><rect class="a" width="8.264" height="0.087" transform="translate(252.288 410.626)"/><path class="a" d="M260.552,411.213h-8.764v-1l.5-.087h8.764v1Z"/><rect class="a" width="8.264" height="0.087" transform="translate(252.288 410.713)"/><path class="a" d="M260.552,411.3h-8.764v-1l.5-.087h8.764v1Z"/><rect class="a" width="8.264" height="0.087" transform="translate(252.288 410.801)"/><path class="a" d="M260.552,411.388h-8.764v-1l.5-.087h8.764v1Z"/><rect class="a" width="8.264" height="0.087" transform="translate(252.288 410.888)"/><path class="a" d="M260.552,411.475h-8.764v-1l.5-.087h8.764v1Z"/><rect class="a" width="8.264" height="0.087" transform="translate(252.288 410.975)"/><path class="a" d="M260.552,411.562h-8.764v-1l.5-.087h8.764v1Z"/><rect class="a" width="8.264" height="0.087" transform="translate(252.288 411.063)"/><path class="a" d="M260.552,411.65h-8.764v-1l.5-.087h8.764v1Z"/><rect class="a" width="8.264" height="0.087" transform="translate(252.288 411.15)"/><path class="a" d="M260.552,411.738h-8.764v-1l.5-.088h8.764v1Z"/><rect class="a" width="8.264" height="0.087" transform="translate(252.288 411.238)"/><path class="a" d="M260.552,411.826h-8.764v-1l.5-.087h8.764v1Z"/><rect class="a" width="8.264" height="0.087" transform="translate(252.288 411.325)"/><path class="a" d="M260.552,411.912h-8.764v-1l.5-.087h8.764v1Z"/><rect class="a" width="8.264" height="0.087" transform="translate(252.288 411.412)"/><path class="a" d="M260.552,412h-8.764v-1l.5-.087h8.764v1Z"/><rect class="a" width="8.264" height="0.087" transform="translate(252.288 411.5)"/><path class="a" d="M260.552,412.087h-8.764v-1l.5-.087h8.764v1Z"/><rect class="a" width="8.264" height="0.087" transform="translate(252.288 411.587)"/><path class="a" d="M260.552,412.174h-8.764v-1l.5-.087h8.764v1Z"/><rect class="a" width="8.264" height="0.087" transform="translate(252.288 411.675)"/><path class="a" d="M260.552,412.262h-8.764v-1l.5-.087h8.764v1Z"/><rect class="a" width="8.264" height="0.087" transform="translate(252.288 411.762)"/><path class="a" d="M260.552,412.349h-8.764v-1l.5-.087h8.764v1Z"/><rect class="a" width="8.264" height="0.087" transform="translate(252.288 411.85)"/><path class="a" d="M260.552,412.437h-8.764v-1l.5-.087h8.764v1Z"/><rect class="a" width="8.264" height="0.087" transform="translate(252.288 411.937)"/><path class="a" d="M260.552,412.524h-8.764v-1l.5-.087h8.764v1Z"/><rect class="a" width="8.264" height="0.087" transform="translate(252.288 412.024)"/><path class="a" d="M260.552,412.612h-8.764v-1l.5-.088h8.764v1Z"/><rect class="a" width="8.264" height="0.087" transform="translate(252.288 412.112)"/><path class="a" d="M260.552,412.7h-8.764v-1l.5-.087h8.764v1Z"/><rect class="a" width="8.264" height="0.087" transform="translate(252.288 412.199)"/><path class="a" d="M260.552,412.786h-8.764v-1l.5-.087h8.764v1Z"/><rect class="a" width="8.264" height="0.087" transform="translate(252.288 412.287)"/><path class="a" d="M260.552,412.874h-8.764v-1l.5-.087h8.764v1Z"/><rect class="a" width="8.264" height="0.087" transform="translate(252.288 412.374)"/><path class="a" d="M260.552,412.961h-8.764v-1l.5-.087h8.764v1Z"/><rect class="a" width="8.264" height="0.087" transform="translate(252.288 412.461)"/><path class="a" d="M260.552,413.048h-8.764v-1l.5-.087h8.764v1Z"/><rect class="a" width="8.264" height="0.087" transform="translate(252.288 412.549)"/><path class="a" d="M260.552,413.136h-8.764v-1l.5-.087h8.764v1Z"/><rect class="a" width="8.264" height="0.087" transform="translate(252.288 412.636)"/><path class="a" d="M260.552,413.223h-8.764v-1l.5-.087h8.764v1Z"/><rect class="a" width="8.264" height="0.087" transform="translate(252.288 412.724)"/><path class="a" d="M260.552,413.311h-8.764v-1l.5-.087h8.764v1Z"/><rect class="a" width="8.264" height="0.087" transform="translate(252.288 412.811)"/><path class="a" d="M260.552,413.4h-8.764v-1l.5-.087h8.764v1Z"/><rect class="a" width="8.264" height="0.087" transform="translate(252.288 412.898)"/><path class="a" d="M260.552,413.485h-8.764v-1l.5-.087h8.764v1Z"/><rect class="a" width="8.264" height="0.087" transform="translate(252.288 412.986)"/><path class="a" d="M260.552,413.574h-8.764v-1l.5-.087h8.764v1Z"/><rect class="a" width="8.264" height="0.087" transform="translate(252.288 413.073)"/><path class="a" d="M260.552,413.66h-8.764v-1l.5-.087h8.764v1Z"/><rect class="a" width="8.264" height="0.087" transform="translate(252.288 413.161)"/><path class="a" d="M260.552,413.748h-8.764v-1l.5-.087h8.764v1Z"/><rect class="a" width="8.264" height="0.087" transform="translate(252.288 413.248)"/><path class="a" d="M260.552,413.835h-8.764v-1l.5-.087h8.764v1Z"/><rect class="a" width="8.264" height="0.087" transform="translate(252.288 413.336)"/><path class="a" d="M260.552,413.923h-8.764v-1l.5-.087h8.764v1Z"/><rect class="a" width="8.264" height="0.087" transform="translate(252.288 413.423)"/><path class="a" d="M260.552,414.01h-8.764v-1l.5-.087h8.764v1Z"/><rect class="a" width="8.264" height="0.087" transform="translate(252.288 413.51)"/><path class="a" d="M260.552,414.1h-8.764v-1l.5-.087h8.764v1Z"/><rect class="a" width="8.264" height="0.087" transform="translate(252.288 413.598)"/><path class="a" d="M260.552,414.185h-8.764v-1l.5-.087h8.764v1Z"/><rect class="a" width="8.264" height="0.087" transform="translate(252.288 413.685)"/><path class="a" d="M260.552,414.272h-8.764v-1l.5-.087h8.764v1Z"/><rect class="a" width="8.264" height="0.087" transform="translate(252.288 413.773)"/><path class="a" d="M260.552,414.36h-8.764v-1l.5-.087h8.764v1Z"/><rect class="a" width="8.264" height="0.087" transform="translate(252.288 413.86)"/><path class="a" d="M260.552,414.448h-8.764v-1l.5-.088h8.764v1Z"/><rect class="a" width="8.264" height="0.087" transform="translate(252.288 413.947)"/><path class="a" d="M260.552,414.534h-8.764v-1l.5-.087h8.764v1Z"/><rect class="a" width="8.264" height="0.087" transform="translate(252.288 414.035)"/><path class="a" d="M260.552,414.622h-8.764v-1l.5-.087h8.764v1Z"/><rect class="a" width="8.264" height="0.087" transform="translate(252.288 414.122)"/><path class="a" d="M260.552,414.709h-8.764v-1l.5-.087h8.764v1Z"/><rect class="a" width="8.264" height="0.087" transform="translate(252.288 414.21)"/><path class="a" d="M260.552,414.8h-8.764v-1l.5-.087h8.764v1Z"/><rect class="a" width="8.264" height="0.087" transform="translate(252.288 414.297)"/><path class="a" d="M260.552,414.884h-8.764v-1l.5-.087h8.764v1Z"/><rect class="a" width="8.264" height="0.087" transform="translate(252.288 414.385)"/><path class="a" d="M260.552,414.972h-8.764v-1l.5-.087h8.764v1Z"/><rect class="a" width="8.264" height="0.087" transform="translate(252.288 414.472)"/><path class="a" d="M260.552,415.059h-8.764v-1l.5-.087h8.764v1Z"/><rect class="a" width="8.264" height="0.087" transform="translate(252.288 414.559)"/><path class="a" d="M260.552,415.146h-8.764v-1l.5-.087h8.764v1Z"/><rect class="a" width="8.264" height="0.087" transform="translate(252.288 414.647)"/><path class="a" d="M260.552,415.234h-8.764v-1l.5-.087h8.764v1Z"/><rect class="a" width="8.264" height="0.087" transform="translate(252.288 414.734)"/><path class="a" d="M260.552,415.322h-8.764v-1l.5-.088h8.764v1Z"/><rect class="a" width="8.264" height="0.087" transform="translate(252.288 414.822)"/><path class="a" d="M260.552,415.409h-8.764v-1l.5-.087h8.764v1Z"/><rect class="a" width="8.264" height="0.087" transform="translate(252.288 414.909)"/><path class="a" d="M260.552,415.5h-8.764v-1l.5-.087h8.764v1Z"/><rect class="a" width="8.264" height="0.087" transform="translate(252.288 414.996)"/><path class="a" d="M260.552,415.583h-8.764v-1l.5-.087h8.764v1Z"/><rect class="a" width="8.264" height="0.087" transform="translate(252.288 415.084)"/><path class="a" d="M260.552,415.671h-8.764v-1l.5-.087h8.764v1Z"/><rect class="a" width="8.264" height="0.087" transform="translate(252.288 415.171)"/><path class="a" d="M260.552,415.758h-8.764v-1l.5-.087h8.764v1Z"/><rect class="a" width="8.264" height="0.087" transform="translate(252.288 415.259)"/><path class="a" d="M260.552,415.846h-8.764v-1l.5-.087h8.764v1Z"/><rect class="a" width="8.264" height="0.087" transform="translate(252.288 415.346)"/><path class="a" d="M260.552,415.933h-8.764v-1l.5-.087h8.764v1Z"/><rect class="a" width="8.264" height="0.087" transform="translate(252.288 415.434)"/><path class="a" d="M260.552,416.021h-8.764v-1l.5-.087h8.764v1Z"/><rect class="a" width="8.264" height="0.087" transform="translate(252.288 415.521)"/><path class="a" d="M260.552,416.108h-8.764v-1l.5-.087h8.764v1Z"/><rect class="a" width="8.264" height="0.087" transform="translate(252.288 415.608)"/><path class="a" d="M260.552,416.2h-8.764v-1l.5-.088h8.764v1Z"/><rect class="a" width="8.264" height="0.087" transform="translate(252.288 415.696)"/><path class="a" d="M260.552,416.284h-8.764v-1l.5-.087h8.764v1Z"/><rect class="a" width="8.264" height="0.087" transform="translate(252.288 415.783)"/><path class="a" d="M260.552,416.37h-8.764v-1l.5-.087h8.764v1Z"/><rect class="a" width="8.264" height="0.087" transform="translate(252.288 415.871)"/><path class="a" d="M260.552,416.458h-8.764v-1l.5-.087h8.764v1Z"/><rect class="a" width="8.264" height="0.5" transform="translate(252.288 415.958)"/><rect class="a" width="9.264" height="1.5" transform="translate(251.788 415.458)"/></g><path class="a" d="M258.289,416h-3.744v-3.36h-2.164l4.036-4.182,4.038,4.182h-2.166Zm-2.744-1h1.744v-2.629a.732.732,0,0,1,.73-.731h.08l-1.682-1.742-1.681,1.742h.078a.732.732,0,0,1,.731.731Z"/><path class="a" d="M258.019,416.458h-3.2a.731.731,0,0,1-.73-.73V413.1h-1.071a.785.785,0,0,1-.51-.206.73.73,0,0,1-.013-1.034l3.4-3.522a.736.736,0,0,1,1.04-.011l.011.011,3.4,3.525a.729.729,0,0,1-.013,1.027.682.682,0,0,1-.517.21h-1.067v2.63A.731.731,0,0,1,258.019,416.458Zm-2.929-1h2.659V412.1h1.436l-2.766-2.867-2.765,2.867h1.436Zm4.535-2.9.005.005Zm-6.409,0,0,0Zm-.2-.454h0Zm6.8,0h0Z"/></g></svg>