<svg xmlns="http://www.w3.org/2000/svg" xmlns:xlink="http://www.w3.org/1999/xlink" width="84" height="84" viewBox="0 0 84 84"><defs><style>.a{fill:url(#a);}.b{fill:#fff;}</style><linearGradient id="a" x1="0.052" y1="0.247" x2="0.802" y2="0.891" gradientUnits="objectBoundingBox"><stop offset="0" stop-color="#dd1818"/><stop offset="1" stop-color="#870000"/></linearGradient></defs><g transform="translate(-151.5 -40)"><path class="a" d="M42,0A42,42,0,1,1,0,42,42,42,0,0,1,42,0Z" transform="translate(151.5 40)"/><g transform="translate(175.5 67)"><path class="b" d="M5.77,55.881a.56.56,0,0,1-.371-.136L.154,51.1a.428.428,0,0,1,0-.657l1.356-1.2a1.72,1.72,0,0,1,2.225,0L7.5,52.571a1.285,1.285,0,0,1,0,1.972l-1.356,1.2A.561.561,0,0,1,5.77,55.881Zm-4.5-5.113,4.5,3.991.986-.873a.428.428,0,0,0,0-.657L2.994,49.894a.573.573,0,0,0-.742,0Z" transform="translate(0 -26.131)"/><path class="b" d="M11.525,51.916a.529.529,0,0,1-.484-.287.427.427,0,0,1,.114-.507l3.934-3.486a.573.573,0,0,1,.742,0,.428.428,0,0,1,0,.657L11.9,51.78A.561.561,0,0,1,11.525,51.916Z" transform="translate(-5.23 -25.42)"/><path class="b" d="M7.525,47.916a.529.529,0,0,1-.484-.287.427.427,0,0,1,.114-.507l3.934-3.486a.573.573,0,0,1,.742,0,.428.428,0,0,1,0,.657L7.9,47.78A.561.561,0,0,1,7.525,47.916Z" transform="translate(-3.328 -23.279)"/><path class="b" d="M17.393,44.3a.561.561,0,0,1-.371-.136L9.154,37.188a.428.428,0,0,1,0-.657l1.574-1.395a.573.573,0,0,1,.742,0l1.049.93a.428.428,0,0,1,0,.657.573.573,0,0,1-.742,0l-.678-.6-.832.737,7.126,6.315.832-.737-2.252-2a.428.428,0,0,1,0-.657.573.573,0,0,1,.742,0l2.623,2.324a.428.428,0,0,1,0,.657l-1.574,1.395A.561.561,0,0,1,17.393,44.3Z" transform="translate(-4.279 -18.731)"/><path class="b" d="M25.525,28.594a.529.529,0,0,1-.484-.287.427.427,0,0,1,.114-.507L38.945,15.578l-5.028-4.456L32.19,12.653a.573.573,0,0,1-.742,0,.428.428,0,0,1,0-.657l2.1-1.859a.573.573,0,0,1,.742,0l5.77,5.113a.428.428,0,0,1,0,.657L25.9,28.458A.561.561,0,0,1,25.525,28.594Z" transform="translate(-11.887 -5.352)"/><path class="b" d="M14.525,29.9a.529.529,0,0,1-.484-.287.427.427,0,0,1,.114-.507l7.868-6.973a.573.573,0,0,1,.742,0,.428.428,0,0,1,0,.657L14.9,29.766A.561.561,0,0,1,14.525,29.9Z" transform="translate(-6.657 -11.773)"/><path class="b" d="M47.2,14.578a.529.529,0,0,1-.484-.287.427.427,0,0,1,.114-.507l1.2-1.066-2.93-2.6-1.2,1.066a.573.573,0,0,1-.742,0,.428.428,0,0,1,0-.657l1.574-1.394a.573.573,0,0,1,.742,0l3.672,3.254a.428.428,0,0,1,0,.657l-1.574,1.395a.561.561,0,0,1-.371.136Z" transform="translate(-20.445 -4.817)"/><path class="b" d="M50.147,11.649a.529.529,0,0,1-.484-.287.427.427,0,0,1,.114-.507l1.2-1.066L49.1,8.122,47.9,9.188a.573.573,0,0,1-.742,0,.428.428,0,0,1,0-.657l1.574-1.394a.573.573,0,0,1,.742,0l2.623,2.324a.428.428,0,0,1,0,.657l-1.574,1.395a.561.561,0,0,1-.371.136Z" transform="translate(-22.347 -3.746)"/><path class="b" d="M53.025,5.346a.529.529,0,0,1-.484-.287.427.427,0,0,1,.114-.507L57.637.136a.573.573,0,0,1,.742,0,.428.428,0,0,1,0,.657L53.4,5.21A.561.561,0,0,1,53.025,5.346Z" transform="translate(-24.962 0)"/><path class="b" d="M47.623,22.789a.561.561,0,0,1-.371-.136l-2.1-1.859a.428.428,0,0,1,0-.657.573.573,0,0,1,.742,0L47.994,22a.427.427,0,0,1,.114.507A.529.529,0,0,1,47.623,22.789Z" transform="translate(-21.396 -10.703)"/><path class="b" d="M43.672,24.719a.561.561,0,0,1-.371-.136l-3.147-2.789a.428.428,0,0,1,0-.657.573.573,0,0,1,.742,0l3.147,2.789a.427.427,0,0,1,.114.507A.529.529,0,0,1,43.672,24.719Z" transform="translate(-19.019 -11.238)"/><path class="b" d="M34.672,33.719a.56.56,0,0,1-.371-.136l-3.147-2.789a.428.428,0,0,1,0-.657.573.573,0,0,1,.742,0l3.147,2.789a.427.427,0,0,1,.114.507A.529.529,0,0,1,34.672,33.719Z" transform="translate(-14.74 -16.055)"/><path class="b" d="M41.623,28.789a.561.561,0,0,1-.371-.136l-2.1-1.859a.428.428,0,0,1,0-.657.573.573,0,0,1,.742,0L41.994,28a.427.427,0,0,1,.114.507A.529.529,0,0,1,41.623,28.789Z" transform="translate(-18.543 -13.914)"/><path class="b" d="M38.623,31.789a.561.561,0,0,1-.371-.136l-2.1-1.859a.428.428,0,0,1,0-.657.573.573,0,0,1,.742,0L38.994,31a.427.427,0,0,1,.114.507A.529.529,0,0,1,38.623,31.789Z" transform="translate(-17.117 -15.52)"/><path class="b" d="M32.623,37.789a.56.56,0,0,1-.371-.136l-2.1-1.859a.428.428,0,0,1,0-.657.573.573,0,0,1,.742,0L32.994,37a.427.427,0,0,1,.114.507A.529.529,0,0,1,32.623,37.789Z" transform="translate(-14.264 -18.73)"/><path class="b" d="M29.623,40.789a.561.561,0,0,1-.371-.136l-2.1-1.859a.428.428,0,0,1,0-.657.573.573,0,0,1,.742,0L29.994,40a.427.427,0,0,1,.114.507A.529.529,0,0,1,29.623,40.789Z" transform="translate(-12.838 -20.336)"/><ellipse class="b" cx="0.525" cy="0.465" rx="0.525" ry="0.465" transform="translate(13.113 19.988)"/><path class="b" d="M32.525,18.859a.529.529,0,0,1-.484-.287.427.427,0,0,1,.114-.507l1.049-.93a.573.573,0,0,1,.742,0,.428.428,0,0,1,0,.657l-1.049.93a.561.561,0,0,1-.371.136Z" transform="translate(-15.215 -9.098)"/><path class="b" d="M18.574,41.859a.561.561,0,0,1-.371-.136l-1.049-.93a.428.428,0,0,1,0-.657.573.573,0,0,1,.742,0l1.049.93a.427.427,0,0,1,.114.507A.529.529,0,0,1,18.574,41.859Z" transform="translate(-8.083 -21.406)"/></g></g></svg>