<svg xmlns="http://www.w3.org/2000/svg" xmlns:xlink="http://www.w3.org/1999/xlink" width="84" height="84" viewBox="0 0 84 84"><defs><style>.a{fill:url(#a);}.b{fill:#fff;}</style><linearGradient id="a" x1="0.052" y1="0.247" x2="0.802" y2="0.891" gradientUnits="objectBoundingBox"><stop offset="0" stop-color="#dd1818"/><stop offset="1" stop-color="#870000"/></linearGradient></defs><path class="a" d="M42,0A42,42,0,1,1,0,42,42,42,0,0,1,42,0Z"/><g transform="translate(23.566 22.661)"><path class="b" d="M52.408,29.2h-1.1V13.822a3.8,3.8,0,0,0-2.191-3.437V8.93a1.64,1.64,0,0,0-1.115-1.549.519.519,0,0,0,.019-.095V4.548a.548.548,0,1,0-1.1,0V7.287a.519.519,0,0,0,.019.095A1.64,1.64,0,0,0,45.835,8.93v1.446a3.814,3.814,0,0,0-2.191,3.446V29.2h-1.1a.548.548,0,1,0,0,1.1h3.287v3.287H43.956a.548.548,0,1,0,0,1.1H51a.548.548,0,0,0,0-1.1H49.121V30.295h3.287a.548.548,0,0,0,0-1.1ZM46.93,8.93a.548.548,0,0,1,1.1,0v1.124a3.944,3.944,0,0,0-.57-.045,3.81,3.81,0,0,0-.526.041Zm1.1,24.651h-1.1V30.295h1.1Zm1.1-4.382H44.739V13.822a2.739,2.739,0,0,1,5.478,0V15.5H48.574a.548.548,0,1,0,0,1.1h1.643v1.643H48.574a.548.548,0,1,0,0,1.1h1.643v1.643H48.574a.548.548,0,1,0,0,1.1h1.643v1.643H48.574a.548.548,0,1,0,0,1.1h1.643V29.2Z" transform="translate(-18.088)"/><path class="b" d="M18.911,10.574H17.886V8.93h.548a1.643,1.643,0,0,0,1.643-1.643V5.643A1.643,1.643,0,0,0,18.434,4H5.287A1.643,1.643,0,0,0,3.643,5.643V7.287A1.643,1.643,0,0,0,5.287,8.93h.548v1.643H4.81A2.813,2.813,0,0,0,2,13.384V31.867a2.813,2.813,0,0,0,2.81,2.81h14.1a2.813,2.813,0,0,0,2.81-2.81V13.384A2.813,2.813,0,0,0,18.911,10.574ZM4.739,7.287V5.643A.548.548,0,0,1,5.287,5.1H18.434a.548.548,0,0,1,.548.548V7.287a.548.548,0,0,1-.548.548H5.287A.548.548,0,0,1,4.739,7.287ZM6.93,8.93h9.86v1.643H6.93Zm13.7,22.936a1.717,1.717,0,0,1-1.715,1.715H4.81A1.717,1.717,0,0,1,3.1,31.867V13.384A1.717,1.717,0,0,1,4.81,11.669h14.1a1.717,1.717,0,0,1,1.715,1.715Z"/><path class="b" d="M19.965,29.382h-3.1v-3.1A1.28,1.28,0,0,0,15.582,25H12.66a1.28,1.28,0,0,0-1.278,1.278v3.1h-3.1A1.28,1.28,0,0,0,7,30.66v2.922A1.28,1.28,0,0,0,8.278,34.86h3.1v3.1a1.28,1.28,0,0,0,1.278,1.278h2.921a1.28,1.28,0,0,0,1.279-1.278v-3.1h3.1a1.28,1.28,0,0,0,1.278-1.278V30.66A1.28,1.28,0,0,0,19.965,29.382Zm.182,4.2a.183.183,0,0,1-.182.182h-4.2v4.2a.183.183,0,0,1-.182.182H12.66a.183.183,0,0,1-.182-.182v-4.2h-4.2a.183.183,0,0,1-.182-.182V30.66a.183.183,0,0,1,.182-.182h4.2v-4.2a.183.183,0,0,1,.182-.182h2.921a.183.183,0,0,1,.182.182v4.2h4.2a.183.183,0,0,1,.182.182Z" transform="translate(-2.261 -9.496)"/></g></svg>