<svg xmlns="http://www.w3.org/2000/svg" xmlns:xlink="http://www.w3.org/1999/xlink" width="84" height="84" viewBox="0 0 84 84"><defs><style>.a{fill:url(#a);}.b{fill:#fff;}</style><linearGradient id="a" x1="0.052" y1="0.247" x2="0.802" y2="0.891" gradientUnits="objectBoundingBox"><stop offset="0" stop-color="#dd1818"/><stop offset="1" stop-color="#870000"/></linearGradient></defs><g transform="translate(-151.5 -40)"><path class="a" d="M42,0A42,42,0,1,1,0,42,42,42,0,0,1,42,0Z" transform="translate(151.5 40)"/><path class="b" d="M47.927,35.629a1.941,1.941,0,0,0-2.54-1.056,1.949,1.949,0,0,0-.939.864l-1.981-.54a1.953,1.953,0,0,0-1.686-1.822,2.285,2.285,0,0,0-.254,0l-1-3.756a1.925,1.925,0,0,0,.7-2.737l1.5-1.545a1.878,1.878,0,0,0,.747.263,1.652,1.652,0,0,0,.263,0,1.963,1.963,0,1,0-1.667-.948L39.527,25.9a2.038,2.038,0,0,0-.69-.235,1.958,1.958,0,0,0-1.442.385,1.878,1.878,0,0,0-.516.606l-3.756-1a1.935,1.935,0,0,0-1.686-1.925,1.7,1.7,0,0,0-.221,0l-.554-2.085a1.925,1.925,0,0,0,.986-1.953,1.949,1.949,0,0,0-3.475-.939h0a1.949,1.949,0,0,0,1.54,3.137h.038l.549,2.043a2.474,2.474,0,0,0-.3.188,1.932,1.932,0,0,0-.479,2.545L26.7,29.473a2,2,0,0,0-.737-.211,1.939,1.939,0,0,0-1.845.822l-1.939-.516a1.938,1.938,0,1,0-1.939,1.911,1.878,1.878,0,0,0,.732-.164,1.92,1.92,0,0,0,.939-.859l1.878.5a1.944,1.944,0,0,0,1.676,2.155h0a1.535,1.535,0,0,0,.254,0,1.409,1.409,0,0,0,.2,0l.967,3.592a1.92,1.92,0,0,0-.751,2.7L24.6,40.925a1.944,1.944,0,1,0-1.258,3.6,1.635,1.635,0,0,0,.258,0,1.935,1.935,0,0,0,1.662-2.944l1.545-1.517a1.845,1.845,0,0,0,.747.263h0a1.634,1.634,0,0,0,.258,0,1.944,1.944,0,0,0,1.7-1l3.583.963a1.949,1.949,0,0,0,1.676,2.132,2.475,2.475,0,0,0,.263,0h.075l.516,1.93a1.878,1.878,0,0,0-.6.512,1.949,1.949,0,0,0,1.54,3.188,1.536,1.536,0,0,0,.254,0,1.916,1.916,0,0,0,1.291-.742h0a1.935,1.935,0,0,0-1.573-3.127l-.54-2c.066-.042.136-.08.2-.131a1.925,1.925,0,0,0,.47-2.54L39.49,36.69a1.845,1.845,0,0,0,.747.263,1.592,1.592,0,0,0,.258,0,1.916,1.916,0,0,0,1.789-1.118l1.9.507a1.977,1.977,0,0,0,.146.779,1.944,1.944,0,1,0,3.6-1.479Zm-27.3-5.165a1.028,1.028,0,0,1-.775,0,1,1,0,0,1-.545-.545h0a1.019,1.019,0,0,1,0-.77,1.008,1.008,0,1,1,1.319,1.3ZM37.189,45.273a1,1,0,1,1-1.211,1.6.981.981,0,0,1-.385-.667,1.01,1.01,0,0,1,.869-1.132h.131a1.014,1.014,0,0,1,.6.2Zm4.545-22.017a1,1,0,0,1,1-.873h.131a1.009,1.009,0,1,1-.263,2,1,1,0,0,1-.869-1.132Zm-4.151,4.226a.981.981,0,0,1,.385-.667,1,1,0,0,1,.61-.207.667.667,0,0,1,.136,0,1.007,1.007,0,1,1-.268,2h0a1,1,0,0,1-.864-1.108ZM28.737,20.1a1.01,1.01,0,0,1,.221-.747,1,1,0,0,1,.667-.385,1.01,1.01,0,1,1-.869,1.132ZM30.2,25.552a1,1,0,0,1,1-.873h.136a1,1,0,0,1,.864,1.132.981.981,0,0,1-.385.667,1,1,0,0,1-1.611-.939Zm-4.625,6.625a1,1,0,0,1-.667-.385,1.028,1.028,0,1,1,.69.385Zm-.939,10.546a1.01,1.01,0,1,1-1-1.141h.131a1.014,1.014,0,0,1,.85,1.141Zm4.2-4.2a.4.4,0,1,0-.019,0Zm4.611.887-3.677-.986A1.878,1.878,0,0,0,27.8,36.455l-1-3.672a1.916,1.916,0,0,0,.573-2.583l2.817-2.817a2,2,0,0,0,.747.263,2.382,2.382,0,0,0,.258,0,1.953,1.953,0,0,0,1.719-1.033l3.723,1a1.925,1.925,0,0,0,1.714,1.953,2.38,2.38,0,0,0,.258,0h.033l1,3.719a1.919,1.919,0,0,0-.747,2.714l-2.817,2.817a1.878,1.878,0,0,0-.747-.263,1.906,1.906,0,0,0-1.437.385,1.85,1.85,0,0,0-.46.479Zm2.6,1.221a.981.981,0,0,1-.385.667,1.008,1.008,0,1,1-.615-1.808h.136a1.014,1.014,0,0,1,.667.385.991.991,0,0,1,.178.756Zm5.494-5.489a1.028,1.028,0,0,1-.4.69.991.991,0,0,1-.747.2h0a1,1,0,1,1,.131-2.005.62.62,0,0,1,.131,0,1,1,0,0,1,.869,1.118Zm5.517,1.629a1.017,1.017,0,1,1,0-.784h0a1.019,1.019,0,0,1,0,.784Z" transform="translate(160.313 48.982)"/></g></svg>