<svg xmlns="http://www.w3.org/2000/svg" xmlns:xlink="http://www.w3.org/1999/xlink" width="84" height="84" viewBox="0 0 84 84"><defs><style>.a{fill:url(#a);}.b{fill:#fff;}</style><linearGradient id="a" x1="0.052" y1="0.247" x2="0.802" y2="0.891" gradientUnits="objectBoundingBox"><stop offset="0" stop-color="#dd1818"/><stop offset="1" stop-color="#870000"/></linearGradient></defs><path class="a" d="M42,0A42,42,0,1,1,0,42,42,42,0,0,1,42,0Z"/><g transform="translate(19.464 22.008)"><path class="b" d="M37.068,7.963,35.852,6.746a.336.336,0,0,0-.487,0l-6.536,6.536-.521-.452L35.3,5.843a.376.376,0,0,0,.1-.243c0-.07-.035-.209-.1-.243L34.079,4.139a.336.336,0,0,0-.487,0l-10.6,10.6a.121.121,0,0,0-.035.07c-.07.035-.07.1-.07.174v.7h-.556v-.7a.128.128,0,0,0-.035-.1.264.264,0,0,0-.07-.139L11.585,4.1a.336.336,0,0,0-.487,0L9.882,5.321a.336.336,0,0,0,0,.487L16.974,12.9l-.591.487L9.708,6.712a.336.336,0,0,0-.487,0L8,7.929a.336.336,0,0,0,0,.487l8.274,8.309a.336.336,0,0,0,.487,0l1.217-1.217a.336.336,0,0,0,0-.487L16.87,13.908l.591-.487,2.434,2.434V35.637a.328.328,0,0,0,.348.348H21.98a.328.328,0,0,0,.348-.348v-17.8h.556v17.8a.328.328,0,0,0,.348.348H24.97a.328.328,0,0,0,.348-.348V15.855l2.5-2.5.521.452-1.252,1.252a.336.336,0,0,0,0,.487l1.217,1.217a.336.336,0,0,0,.487,0l8.274-8.274A.377.377,0,0,0,37.068,7.963ZM16.522,15.994,8.734,8.207l.73-.73,7.788,7.788Zm5.111,19.295H20.589V15.681a.316.316,0,0,0-.1-.243L10.612,5.6l.73-.73L21.632,15.125Zm.7-18.148v-.765h.556v.765Zm2.364-1.7a.316.316,0,0,0-.1.243V35.289H23.545V15.125L33.835,4.869l.73.73-6.988,6.988-.035.035v.035Zm3.859.556-.73-.73,7.787-7.788.73.73Z"/></g></svg>