<svg xmlns="http://www.w3.org/2000/svg" xmlns:xlink="http://www.w3.org/1999/xlink" width="84" height="84" viewBox="0 0 84 84"><defs><style>.a{fill:url(#a);}.b{fill:#fff;}</style><linearGradient id="a" x1="0.052" y1="0.247" x2="0.802" y2="0.891" gradientUnits="objectBoundingBox"><stop offset="0" stop-color="#dd1818"/><stop offset="1" stop-color="#870000"/></linearGradient></defs><g transform="translate(-152 -75)"><path class="a" d="M42,0A42,42,0,1,1,0,42,42,42,0,0,1,42,0Z" transform="translate(152 75)"/><g transform="translate(173.203 94.08)"><path class="b" d="M20.8,25.707a3.256,3.256,0,1,0-3.256-3.256A3.256,3.256,0,0,0,20.8,25.707Zm16.4-3.256a4.355,4.355,0,0,0-1.01-2.7,2.2,2.2,0,0,0-3.466-2.612q-.732-.36-1.561-.673c.644-3.9-.046-7-2.164-8.219a4.142,4.142,0,0,0-2.1-.537c-1.847,0-3.983,1.008-6.123,2.774C18.634,8.727,16.5,7.71,14.7,7.71a4.139,4.139,0,0,0-2.1.537,4.358,4.358,0,0,0-1.833,2.227,2.206,2.206,0,0,0-.529,4.3q.055.817.2,1.694C6.729,17.862,4.4,20.006,4.4,22.451s2.333,4.589,6.037,5.983c-.061.367-.113.731-.151,1.086-.376,3.521.446,6.055,2.314,7.134a4.145,4.145,0,0,0,2.1.537,5.376,5.376,0,0,0,.746-.055,2.207,2.207,0,0,0,4.049-1.216,2.241,2.241,0,0,0-.058-.5c.452-.306.908-.65,1.364-1.025,2.147,1.768,4.288,2.793,6.1,2.793h0a4.139,4.139,0,0,0,2.1-.537c1.869-1.079,2.691-3.613,2.314-7.134-.038-.355-.09-.718-.151-1.085C34.864,27.041,37.2,24.9,37.2,22.451ZM26.9,9.149a2.723,2.723,0,0,1,1.381.345c1.54.889,2,3.352,1.5,6.509a28.228,28.228,0,0,0-4.716-.966,28.6,28.6,0,0,0-3.184-3.577A8.73,8.73,0,0,1,26.9,9.149ZM14.156,26.285q.584,1.01,1.215,1.953a26.2,26.2,0,0,1-3.282-.76,25.416,25.416,0,0,1,.979-3.226Q13.569,25.264,14.156,26.285Zm-2.066-8.86a26.2,26.2,0,0,1,3.277-.759q-.624.94-1.211,1.953t-1.085,2.024A26.193,26.193,0,0,1,12.09,17.425Zm1.72,5.022A34.383,34.383,0,0,1,15.4,19.338,33.5,33.5,0,0,1,17.307,16.4a33.855,33.855,0,0,1,6.98,0,33.6,33.6,0,0,1,1.9,2.934,34.327,34.327,0,0,1,1.592,3.111,33.746,33.746,0,0,1-1.592,3.12,33.6,33.6,0,0,1-1.9,2.933,33.879,33.879,0,0,1-3.489.181,33.941,33.941,0,0,1-3.492-.181,33.741,33.741,0,0,1-3.5-6.053Zm13.627,3.839q.589-1.02,1.089-2.034a25.411,25.411,0,0,1,.979,3.226,26.323,26.323,0,0,1-3.282.761C26.641,27.61,27.048,26.96,27.437,26.286Zm1.085-5.643q-.5-1.017-1.085-2.026t-1.215-1.952a26.159,26.159,0,0,1,3.281.76A26.217,26.217,0,0,1,28.522,20.643ZM20.8,12.4a26.2,26.2,0,0,1,2.294,2.452c-.748-.047-1.513-.073-2.293-.073s-1.546.026-2.3.073A26.207,26.207,0,0,1,20.8,12.4Zm-7.678.269a2.2,2.2,0,0,0-.971-1.829,2.925,2.925,0,0,1,1.168-1.352A2.726,2.726,0,0,1,14.7,9.149a8.7,8.7,0,0,1,4.994,2.293,28.4,28.4,0,0,0-3.176,3.6,28.226,28.226,0,0,0-4.7.965q-.1-.65-.149-1.256A2.2,2.2,0,0,0,13.119,12.673ZM5.835,22.451c0-1.778,1.9-3.41,4.885-4.558a28.2,28.2,0,0,0,1.519,4.561,28.472,28.472,0,0,0-1.518,4.554C7.736,25.862,5.835,24.23,5.835,22.451ZM18.68,34.213a2.205,2.205,0,0,0-3.594,1.518,3.9,3.9,0,0,1-.39.022,2.727,2.727,0,0,1-1.381-.344c-1.326-.766-1.911-2.856-1.6-5.735.027-.254.063-.514.1-.774a28.357,28.357,0,0,0,4.712.965,28.633,28.633,0,0,0,3.185,3.577Q19.192,33.863,18.68,34.213ZM20.8,32.5A26.164,26.164,0,0,1,18.5,30.046c.749.047,1.514.074,2.3.074s1.545-.027,2.293-.074A26.165,26.165,0,0,1,20.8,32.5Zm7.481,2.911a2.727,2.727,0,0,1-1.38.344h0a8.73,8.73,0,0,1-5.015-2.311,28.628,28.628,0,0,0,3.184-3.577,28.152,28.152,0,0,0,4.712-.965c.04.261.076.52.1.773C30.189,32.552,29.6,34.643,28.278,35.409Zm2.6-8.4a28.454,28.454,0,0,0-1.519-4.555,28.242,28.242,0,0,0,1.519-4.562q.618.238,1.171.5a2.2,2.2,0,0,0,3.12,2.355,2.936,2.936,0,0,1,.6,1.7C35.76,24.23,33.857,25.862,30.874,27.01Z" transform="translate(0 0)"/></g></g></svg>